M48
;GenerationSoftware,Autodesk,EAGLE,9.3.0*%
;CreationDate,2019-04-09T02:46:45Z*%
FMAT,2
ICI,OFF
METRIC,TZ,000.000
T6C0.350
T5C1.000
T4C1.016
T3C1.060
T2C1.300
T1C1.600
%
G90
M71
T1
X25880Y30480
X7700Y52070
X17300Y52070
X35480Y30480
T2
X53554Y72390
X48554Y72390
T3
X48260Y59690
X45720Y59690
X66040Y59690
X68580Y59690
X63500Y59690
X50800Y59690
T4
X71120Y19050
X58420Y46990
X60960Y46990
X63500Y46990
X66040Y46990
X68580Y46990
X71120Y46990
X58420Y40640
X60960Y40640
X63500Y40640
X66040Y40640
X68580Y40640
X71120Y40640
X71120Y3810
X68580Y3810
X71120Y6350
X68580Y6350
X71120Y8890
X68580Y8890
X71120Y11430
X68580Y11430
X71120Y13970
X68580Y13970
X71120Y16510
X68580Y16510
X68580Y19050
X71120Y21590
X68580Y21590
X71120Y24130
X68580Y24130
X71120Y26670
X68580Y26670
X62560Y11455
X62560Y6325
X56718Y11481
X10109Y31852
X15697Y28499
X56718Y6299
T5
X32130Y69548
X36830Y66548
X36830Y72548
T6
X25273Y53213
X59309Y16484
X56515Y16484
X29446Y49458
X32845Y60122
X9652Y54610
X28067Y55245
X41634Y24821
X26880Y24849
X26013Y61905
X68047Y68811
X9100Y46439
X13900Y57701
X23899Y50241
X39901Y58674
X58318Y68811
X22329Y66142
X4930Y36220
X4930Y38557
X13566Y24765
X13439Y22403
X4930Y40742
X43203Y55423
X23899Y48133
X43002Y34186
X39901Y61087
X42926Y18900
X26416Y56134
X18542Y56134
X34036Y36195
X35179Y26289
X31623Y28321
X6096Y44323
X21336Y53594
X4335Y53848
X52705Y32893
X30861Y32893
X63754Y27559
X56515Y21336
X39116Y47117
X26880Y36111
X64389Y15367
X32131Y32893
X60833Y24765
X11303Y35814
X24181Y52121
X43434Y51435
M30