G04 EAGLE Gerber RS-274X export*
G75*
%MOMM*%
%FSLAX34Y34*%
%LPD*%
%INBottom Copper*%
%IPPOS*%
%AMOC8*
5,1,8,0,0,1.08239X$1,22.5*%
G01*
%ADD10C,1.524000*%
%ADD11P,1.649562X8X112.500000*%
%ADD12C,1.590000*%
%ADD13R,1.590000X1.590000*%
%ADD14P,1.649562X8X22.500000*%
%ADD15R,1.950000X1.950000*%
%ADD16C,1.950000*%
%ADD17C,2.500000*%
%ADD18C,2.250000*%
%ADD19C,0.812800*%
%ADD20C,0.756400*%
%ADD21C,0.254000*%
%ADD22C,0.203200*%

G36*
X749418Y11446D02*
X749418Y11446D01*
X749537Y11453D01*
X749575Y11466D01*
X749616Y11471D01*
X749726Y11514D01*
X749839Y11551D01*
X749874Y11573D01*
X749911Y11588D01*
X750007Y11658D01*
X750108Y11721D01*
X750136Y11751D01*
X750169Y11774D01*
X750245Y11866D01*
X750326Y11953D01*
X750346Y11988D01*
X750371Y12019D01*
X750422Y12127D01*
X750480Y12231D01*
X750490Y12271D01*
X750507Y12307D01*
X750529Y12424D01*
X750559Y12539D01*
X750563Y12600D01*
X750567Y12620D01*
X750565Y12640D01*
X750569Y12700D01*
X750569Y749300D01*
X750554Y749418D01*
X750547Y749537D01*
X750534Y749575D01*
X750529Y749616D01*
X750486Y749726D01*
X750449Y749839D01*
X750427Y749874D01*
X750412Y749911D01*
X750343Y750007D01*
X750279Y750108D01*
X750249Y750136D01*
X750226Y750169D01*
X750134Y750245D01*
X750047Y750326D01*
X750012Y750346D01*
X749981Y750371D01*
X749873Y750422D01*
X749769Y750480D01*
X749729Y750490D01*
X749693Y750507D01*
X749576Y750529D01*
X749461Y750559D01*
X749401Y750563D01*
X749381Y750567D01*
X749360Y750565D01*
X749300Y750569D01*
X12700Y750569D01*
X12582Y750554D01*
X12463Y750547D01*
X12425Y750534D01*
X12384Y750529D01*
X12274Y750486D01*
X12161Y750449D01*
X12126Y750427D01*
X12089Y750412D01*
X11993Y750343D01*
X11892Y750279D01*
X11864Y750249D01*
X11831Y750226D01*
X11756Y750134D01*
X11674Y750047D01*
X11654Y750012D01*
X11629Y749981D01*
X11578Y749873D01*
X11520Y749769D01*
X11510Y749729D01*
X11493Y749693D01*
X11471Y749576D01*
X11441Y749461D01*
X11437Y749401D01*
X11433Y749381D01*
X11435Y749360D01*
X11431Y749300D01*
X11431Y12700D01*
X11446Y12582D01*
X11453Y12463D01*
X11466Y12425D01*
X11471Y12384D01*
X11514Y12274D01*
X11551Y12161D01*
X11573Y12126D01*
X11588Y12089D01*
X11658Y11993D01*
X11721Y11892D01*
X11751Y11864D01*
X11774Y11831D01*
X11866Y11756D01*
X11953Y11674D01*
X11988Y11654D01*
X12019Y11629D01*
X12127Y11578D01*
X12231Y11520D01*
X12271Y11510D01*
X12307Y11493D01*
X12424Y11471D01*
X12539Y11441D01*
X12600Y11437D01*
X12620Y11433D01*
X12640Y11435D01*
X12700Y11431D01*
X749300Y11431D01*
X749418Y11446D01*
G37*
%LPC*%
G36*
X706360Y26415D02*
X706360Y26415D01*
X699515Y33260D01*
X699515Y42940D01*
X706478Y49902D01*
X706551Y49997D01*
X706630Y50086D01*
X706648Y50122D01*
X706673Y50154D01*
X706720Y50263D01*
X706774Y50369D01*
X706783Y50408D01*
X706799Y50446D01*
X706818Y50563D01*
X706844Y50679D01*
X706843Y50720D01*
X706849Y50760D01*
X706838Y50878D01*
X706834Y50997D01*
X706823Y51036D01*
X706819Y51076D01*
X706779Y51189D01*
X706746Y51303D01*
X706725Y51337D01*
X706712Y51376D01*
X706645Y51474D01*
X706584Y51577D01*
X706544Y51622D01*
X706533Y51639D01*
X706518Y51652D01*
X706478Y51697D01*
X699398Y58778D01*
X699303Y58851D01*
X699214Y58930D01*
X699178Y58948D01*
X699146Y58973D01*
X699037Y59020D01*
X698931Y59074D01*
X698892Y59083D01*
X698854Y59099D01*
X698737Y59118D01*
X698621Y59144D01*
X698580Y59143D01*
X698540Y59149D01*
X698422Y59138D01*
X698303Y59134D01*
X698264Y59123D01*
X698224Y59119D01*
X698111Y59079D01*
X697997Y59046D01*
X697963Y59025D01*
X697924Y59012D01*
X697826Y58945D01*
X697723Y58884D01*
X697678Y58844D01*
X697661Y58833D01*
X697648Y58818D01*
X697603Y58778D01*
X690640Y51815D01*
X680960Y51815D01*
X674115Y58660D01*
X674115Y68340D01*
X681078Y75302D01*
X681151Y75397D01*
X681230Y75486D01*
X681248Y75522D01*
X681273Y75554D01*
X681320Y75663D01*
X681374Y75769D01*
X681383Y75808D01*
X681399Y75846D01*
X681418Y75963D01*
X681444Y76079D01*
X681443Y76120D01*
X681449Y76160D01*
X681438Y76278D01*
X681434Y76397D01*
X681423Y76436D01*
X681419Y76476D01*
X681379Y76589D01*
X681346Y76703D01*
X681325Y76737D01*
X681312Y76776D01*
X681245Y76874D01*
X681184Y76977D01*
X681144Y77022D01*
X681133Y77039D01*
X681118Y77052D01*
X681078Y77097D01*
X674115Y84060D01*
X674115Y93740D01*
X681078Y100702D01*
X681151Y100797D01*
X681230Y100886D01*
X681248Y100922D01*
X681273Y100954D01*
X681320Y101063D01*
X681374Y101169D01*
X681383Y101208D01*
X681399Y101246D01*
X681418Y101363D01*
X681444Y101479D01*
X681443Y101520D01*
X681449Y101560D01*
X681438Y101678D01*
X681434Y101797D01*
X681423Y101836D01*
X681419Y101876D01*
X681379Y101989D01*
X681346Y102103D01*
X681325Y102137D01*
X681312Y102176D01*
X681245Y102274D01*
X681184Y102377D01*
X681144Y102422D01*
X681133Y102439D01*
X681118Y102452D01*
X681078Y102497D01*
X674115Y109460D01*
X674115Y119140D01*
X681078Y126103D01*
X681151Y126197D01*
X681230Y126286D01*
X681248Y126322D01*
X681273Y126354D01*
X681320Y126463D01*
X681374Y126569D01*
X681383Y126608D01*
X681399Y126646D01*
X681418Y126763D01*
X681444Y126879D01*
X681443Y126920D01*
X681449Y126960D01*
X681438Y127078D01*
X681434Y127197D01*
X681423Y127236D01*
X681419Y127276D01*
X681379Y127389D01*
X681346Y127503D01*
X681325Y127538D01*
X681312Y127576D01*
X681245Y127674D01*
X681184Y127777D01*
X681144Y127822D01*
X681133Y127839D01*
X681118Y127852D01*
X681078Y127898D01*
X674115Y134860D01*
X674115Y144540D01*
X675744Y146169D01*
X675829Y146278D01*
X675918Y146385D01*
X675926Y146404D01*
X675939Y146420D01*
X675994Y146548D01*
X676053Y146673D01*
X676057Y146693D01*
X676065Y146712D01*
X676087Y146850D01*
X676113Y146986D01*
X676112Y147006D01*
X676115Y147026D01*
X676102Y147165D01*
X676093Y147303D01*
X676087Y147322D01*
X676085Y147342D01*
X676038Y147474D01*
X675995Y147605D01*
X675984Y147623D01*
X675978Y147642D01*
X675899Y147757D01*
X675825Y147874D01*
X675810Y147888D01*
X675799Y147905D01*
X675695Y147997D01*
X675593Y148092D01*
X675576Y148102D01*
X675561Y148115D01*
X675436Y148179D01*
X675315Y148246D01*
X675295Y148251D01*
X675277Y148260D01*
X675141Y148290D01*
X675007Y148325D01*
X674979Y148327D01*
X674967Y148330D01*
X674947Y148329D01*
X674846Y148335D01*
X650178Y148335D01*
X650080Y148323D01*
X649981Y148320D01*
X649923Y148303D01*
X649862Y148295D01*
X649770Y148259D01*
X649675Y148231D01*
X649623Y148201D01*
X649567Y148178D01*
X649487Y148120D01*
X649401Y148070D01*
X649326Y148004D01*
X649309Y147992D01*
X649302Y147982D01*
X649280Y147964D01*
X648335Y147018D01*
X645451Y145823D01*
X642329Y145823D01*
X639445Y147018D01*
X637238Y149225D01*
X636043Y152109D01*
X636043Y155231D01*
X637238Y158115D01*
X639445Y160322D01*
X642329Y161517D01*
X645451Y161517D01*
X648335Y160322D01*
X649280Y159376D01*
X649359Y159316D01*
X649431Y159248D01*
X649484Y159219D01*
X649532Y159182D01*
X649623Y159142D01*
X649709Y159094D01*
X649768Y159079D01*
X649824Y159055D01*
X649922Y159040D01*
X650017Y159015D01*
X650117Y159009D01*
X650138Y159005D01*
X650150Y159007D01*
X650178Y159005D01*
X663507Y159005D01*
X663644Y159022D01*
X663783Y159035D01*
X663802Y159042D01*
X663822Y159045D01*
X663951Y159096D01*
X664082Y159143D01*
X664099Y159154D01*
X664118Y159162D01*
X664230Y159243D01*
X664345Y159321D01*
X664359Y159337D01*
X664375Y159348D01*
X664464Y159456D01*
X664556Y159560D01*
X664565Y159578D01*
X664578Y159593D01*
X664637Y159719D01*
X664700Y159843D01*
X664705Y159863D01*
X664714Y159881D01*
X664740Y160017D01*
X664770Y160153D01*
X664769Y160173D01*
X664773Y160193D01*
X664765Y160332D01*
X664760Y160471D01*
X664755Y160491D01*
X664754Y160511D01*
X664711Y160643D01*
X664672Y160777D01*
X664662Y160794D01*
X664656Y160813D01*
X664581Y160931D01*
X664511Y161051D01*
X664492Y161072D01*
X664485Y161082D01*
X664470Y161096D01*
X664404Y161171D01*
X617922Y207654D01*
X617844Y207714D01*
X617772Y207782D01*
X617719Y207811D01*
X617671Y207848D01*
X617580Y207888D01*
X617493Y207936D01*
X617435Y207951D01*
X617379Y207975D01*
X617281Y207990D01*
X617185Y208015D01*
X617085Y208021D01*
X617065Y208025D01*
X617053Y208023D01*
X617025Y208025D01*
X571438Y208025D01*
X571340Y208013D01*
X571241Y208010D01*
X571183Y207993D01*
X571122Y207985D01*
X571030Y207949D01*
X570935Y207921D01*
X570883Y207891D01*
X570827Y207868D01*
X570747Y207810D01*
X570661Y207760D01*
X570586Y207694D01*
X570569Y207682D01*
X570562Y207672D01*
X570540Y207654D01*
X569595Y206708D01*
X566711Y205513D01*
X563589Y205513D01*
X560705Y206708D01*
X558498Y208915D01*
X557303Y211799D01*
X557303Y214921D01*
X558498Y217805D01*
X559444Y218750D01*
X559504Y218829D01*
X559572Y218901D01*
X559601Y218954D01*
X559638Y219002D01*
X559678Y219093D01*
X559726Y219179D01*
X559741Y219238D01*
X559765Y219294D01*
X559780Y219392D01*
X559805Y219487D01*
X559811Y219587D01*
X559815Y219608D01*
X559813Y219620D01*
X559815Y219648D01*
X559815Y262636D01*
X559800Y262754D01*
X559793Y262873D01*
X559780Y262911D01*
X559775Y262952D01*
X559732Y263062D01*
X559695Y263175D01*
X559673Y263210D01*
X559658Y263247D01*
X559589Y263343D01*
X559525Y263444D01*
X559495Y263472D01*
X559472Y263505D01*
X559380Y263581D01*
X559293Y263662D01*
X559258Y263682D01*
X559227Y263707D01*
X559119Y263758D01*
X559015Y263816D01*
X558975Y263826D01*
X558939Y263843D01*
X558822Y263865D01*
X558707Y263895D01*
X558647Y263899D01*
X558627Y263903D01*
X558606Y263901D01*
X558546Y263905D01*
X367239Y263905D01*
X365278Y264717D01*
X309284Y320712D01*
X309206Y320772D01*
X309134Y320840D01*
X309081Y320869D01*
X309033Y320906D01*
X308942Y320946D01*
X308855Y320994D01*
X308797Y321009D01*
X308741Y321033D01*
X308643Y321048D01*
X308547Y321073D01*
X308447Y321079D01*
X308427Y321083D01*
X308415Y321081D01*
X308387Y321083D01*
X307049Y321083D01*
X304165Y322278D01*
X301958Y324485D01*
X300763Y327369D01*
X300763Y330491D01*
X301958Y333375D01*
X304165Y335582D01*
X307049Y336777D01*
X310171Y336777D01*
X313055Y335582D01*
X314063Y334574D01*
X314157Y334501D01*
X314246Y334423D01*
X314282Y334404D01*
X314314Y334380D01*
X314423Y334332D01*
X314529Y334278D01*
X314568Y334269D01*
X314606Y334253D01*
X314723Y334234D01*
X314839Y334208D01*
X314880Y334210D01*
X314920Y334203D01*
X315038Y334214D01*
X315157Y334218D01*
X315196Y334229D01*
X315236Y334233D01*
X315348Y334273D01*
X315463Y334307D01*
X315498Y334327D01*
X315536Y334341D01*
X315634Y334408D01*
X315737Y334468D01*
X315782Y334508D01*
X315799Y334519D01*
X315812Y334535D01*
X315858Y334574D01*
X316865Y335582D01*
X319749Y336777D01*
X322871Y336777D01*
X325755Y335582D01*
X326700Y334636D01*
X326779Y334576D01*
X326851Y334508D01*
X326904Y334479D01*
X326952Y334442D01*
X327043Y334402D01*
X327129Y334354D01*
X327188Y334339D01*
X327244Y334315D01*
X327342Y334300D01*
X327437Y334275D01*
X327537Y334269D01*
X327558Y334265D01*
X327570Y334267D01*
X327598Y334265D01*
X520762Y334265D01*
X520860Y334277D01*
X520959Y334280D01*
X521017Y334297D01*
X521078Y334305D01*
X521170Y334341D01*
X521265Y334369D01*
X521317Y334399D01*
X521373Y334422D01*
X521453Y334480D01*
X521539Y334530D01*
X521614Y334596D01*
X521631Y334608D01*
X521638Y334618D01*
X521660Y334636D01*
X522605Y335582D01*
X525489Y336777D01*
X528611Y336777D01*
X531495Y335582D01*
X532440Y334636D01*
X532519Y334576D01*
X532591Y334508D01*
X532644Y334479D01*
X532692Y334442D01*
X532783Y334402D01*
X532869Y334354D01*
X532928Y334339D01*
X532984Y334315D01*
X533082Y334300D01*
X533177Y334275D01*
X533277Y334269D01*
X533298Y334265D01*
X533310Y334267D01*
X533338Y334265D01*
X619565Y334265D01*
X619663Y334277D01*
X619762Y334280D01*
X619820Y334297D01*
X619880Y334305D01*
X619972Y334341D01*
X620067Y334369D01*
X620119Y334399D01*
X620176Y334422D01*
X620256Y334480D01*
X620341Y334530D01*
X620417Y334596D01*
X620433Y334608D01*
X620441Y334618D01*
X620462Y334636D01*
X676043Y390217D01*
X676116Y390312D01*
X676195Y390401D01*
X676213Y390437D01*
X676238Y390469D01*
X676285Y390578D01*
X676339Y390684D01*
X676348Y390723D01*
X676364Y390760D01*
X676383Y390878D01*
X676409Y390994D01*
X676408Y391035D01*
X676414Y391075D01*
X676403Y391193D01*
X676399Y391312D01*
X676388Y391351D01*
X676384Y391391D01*
X676344Y391503D01*
X676311Y391618D01*
X676290Y391652D01*
X676277Y391690D01*
X676210Y391789D01*
X676149Y391892D01*
X676110Y391937D01*
X676098Y391954D01*
X676083Y391967D01*
X676043Y392012D01*
X675894Y392161D01*
X674273Y396076D01*
X674204Y396197D01*
X674139Y396320D01*
X674125Y396335D01*
X674115Y396352D01*
X674018Y396452D01*
X673925Y396555D01*
X673908Y396566D01*
X673894Y396581D01*
X673775Y396653D01*
X673659Y396730D01*
X673640Y396736D01*
X673623Y396747D01*
X673490Y396788D01*
X673358Y396833D01*
X673338Y396834D01*
X673319Y396840D01*
X673180Y396847D01*
X673041Y396858D01*
X673021Y396855D01*
X673001Y396856D01*
X672865Y396827D01*
X672728Y396804D01*
X672709Y396795D01*
X672690Y396791D01*
X672564Y396730D01*
X672438Y396673D01*
X672422Y396660D01*
X672404Y396652D01*
X672298Y396561D01*
X672190Y396474D01*
X672177Y396458D01*
X672162Y396445D01*
X672082Y396331D01*
X671998Y396220D01*
X671986Y396195D01*
X671979Y396185D01*
X671972Y396166D01*
X671927Y396076D01*
X670306Y392161D01*
X667019Y388874D01*
X662724Y387095D01*
X658076Y387095D01*
X653781Y388874D01*
X650494Y392161D01*
X648873Y396076D01*
X648804Y396197D01*
X648739Y396320D01*
X648725Y396335D01*
X648715Y396352D01*
X648618Y396452D01*
X648525Y396555D01*
X648508Y396566D01*
X648494Y396581D01*
X648375Y396653D01*
X648259Y396730D01*
X648240Y396736D01*
X648223Y396747D01*
X648090Y396788D01*
X647958Y396833D01*
X647938Y396834D01*
X647919Y396840D01*
X647780Y396847D01*
X647641Y396858D01*
X647621Y396855D01*
X647601Y396856D01*
X647465Y396827D01*
X647328Y396804D01*
X647309Y396795D01*
X647290Y396791D01*
X647164Y396730D01*
X647038Y396673D01*
X647022Y396660D01*
X647004Y396652D01*
X646898Y396561D01*
X646790Y396474D01*
X646777Y396458D01*
X646762Y396445D01*
X646682Y396331D01*
X646598Y396220D01*
X646586Y396195D01*
X646579Y396185D01*
X646572Y396166D01*
X646527Y396076D01*
X644906Y392161D01*
X641619Y388874D01*
X637324Y387095D01*
X632676Y387095D01*
X628381Y388874D01*
X625094Y392161D01*
X623473Y396076D01*
X623404Y396197D01*
X623339Y396320D01*
X623325Y396335D01*
X623315Y396352D01*
X623218Y396452D01*
X623125Y396555D01*
X623108Y396566D01*
X623094Y396581D01*
X622975Y396653D01*
X622859Y396730D01*
X622840Y396736D01*
X622823Y396747D01*
X622690Y396788D01*
X622558Y396833D01*
X622538Y396834D01*
X622519Y396840D01*
X622380Y396847D01*
X622241Y396858D01*
X622221Y396855D01*
X622201Y396856D01*
X622065Y396827D01*
X621928Y396804D01*
X621909Y396795D01*
X621890Y396791D01*
X621764Y396730D01*
X621638Y396673D01*
X621622Y396660D01*
X621604Y396652D01*
X621498Y396561D01*
X621390Y396474D01*
X621377Y396458D01*
X621362Y396445D01*
X621282Y396331D01*
X621198Y396220D01*
X621186Y396195D01*
X621179Y396185D01*
X621172Y396166D01*
X621127Y396076D01*
X619506Y392161D01*
X616219Y388874D01*
X611924Y387095D01*
X607276Y387095D01*
X602981Y388874D01*
X599694Y392161D01*
X598073Y396076D01*
X598004Y396197D01*
X597939Y396320D01*
X597925Y396335D01*
X597915Y396352D01*
X597818Y396452D01*
X597725Y396555D01*
X597708Y396566D01*
X597694Y396581D01*
X597575Y396653D01*
X597459Y396730D01*
X597440Y396736D01*
X597423Y396747D01*
X597290Y396788D01*
X597158Y396833D01*
X597138Y396834D01*
X597119Y396840D01*
X596980Y396847D01*
X596841Y396858D01*
X596821Y396855D01*
X596801Y396856D01*
X596665Y396827D01*
X596528Y396804D01*
X596509Y396795D01*
X596490Y396791D01*
X596364Y396730D01*
X596238Y396673D01*
X596222Y396660D01*
X596204Y396652D01*
X596098Y396561D01*
X595990Y396474D01*
X595977Y396458D01*
X595962Y396445D01*
X595882Y396331D01*
X595798Y396220D01*
X595786Y396195D01*
X595779Y396185D01*
X595772Y396166D01*
X595727Y396076D01*
X594106Y392161D01*
X590819Y388874D01*
X586524Y387095D01*
X581876Y387095D01*
X577581Y388874D01*
X574294Y392161D01*
X572515Y396456D01*
X572515Y416344D01*
X574294Y420639D01*
X577581Y423926D01*
X581876Y425705D01*
X586524Y425705D01*
X590819Y423926D01*
X594106Y420639D01*
X595727Y416724D01*
X595796Y416604D01*
X595861Y416480D01*
X595875Y416466D01*
X595885Y416448D01*
X595982Y416348D01*
X596075Y416245D01*
X596092Y416234D01*
X596106Y416219D01*
X596224Y416147D01*
X596341Y416070D01*
X596360Y416064D01*
X596377Y416053D01*
X596510Y416012D01*
X596642Y415967D01*
X596662Y415966D01*
X596681Y415960D01*
X596820Y415953D01*
X596959Y415942D01*
X596979Y415945D01*
X596999Y415944D01*
X597135Y415973D01*
X597272Y415996D01*
X597290Y416005D01*
X597310Y416009D01*
X597436Y416070D01*
X597562Y416127D01*
X597578Y416140D01*
X597596Y416148D01*
X597702Y416239D01*
X597810Y416326D01*
X597823Y416342D01*
X597838Y416355D01*
X597918Y416469D01*
X598002Y416580D01*
X598014Y416605D01*
X598021Y416615D01*
X598028Y416634D01*
X598073Y416724D01*
X599694Y420639D01*
X602981Y423926D01*
X607276Y425705D01*
X611924Y425705D01*
X616219Y423926D01*
X619506Y420639D01*
X621127Y416724D01*
X621196Y416604D01*
X621261Y416480D01*
X621275Y416466D01*
X621285Y416448D01*
X621382Y416348D01*
X621475Y416245D01*
X621492Y416234D01*
X621506Y416219D01*
X621624Y416147D01*
X621741Y416070D01*
X621760Y416064D01*
X621777Y416053D01*
X621910Y416012D01*
X622042Y415967D01*
X622062Y415966D01*
X622081Y415960D01*
X622220Y415953D01*
X622359Y415942D01*
X622379Y415945D01*
X622399Y415944D01*
X622535Y415973D01*
X622672Y415996D01*
X622690Y416005D01*
X622710Y416009D01*
X622836Y416070D01*
X622962Y416127D01*
X622978Y416140D01*
X622996Y416148D01*
X623102Y416239D01*
X623210Y416326D01*
X623223Y416342D01*
X623238Y416355D01*
X623318Y416469D01*
X623402Y416580D01*
X623414Y416605D01*
X623421Y416615D01*
X623428Y416634D01*
X623473Y416724D01*
X625094Y420639D01*
X628381Y423926D01*
X632676Y425705D01*
X637324Y425705D01*
X641619Y423926D01*
X644906Y420639D01*
X646527Y416724D01*
X646596Y416604D01*
X646661Y416480D01*
X646675Y416466D01*
X646685Y416448D01*
X646782Y416348D01*
X646875Y416245D01*
X646892Y416234D01*
X646906Y416219D01*
X647024Y416147D01*
X647141Y416070D01*
X647160Y416064D01*
X647177Y416053D01*
X647310Y416012D01*
X647442Y415967D01*
X647462Y415966D01*
X647481Y415960D01*
X647620Y415953D01*
X647759Y415942D01*
X647779Y415945D01*
X647799Y415944D01*
X647935Y415973D01*
X648072Y415996D01*
X648090Y416005D01*
X648110Y416009D01*
X648236Y416070D01*
X648362Y416127D01*
X648378Y416140D01*
X648396Y416148D01*
X648502Y416239D01*
X648610Y416326D01*
X648623Y416342D01*
X648638Y416355D01*
X648718Y416469D01*
X648802Y416580D01*
X648814Y416605D01*
X648821Y416615D01*
X648828Y416634D01*
X648873Y416724D01*
X650494Y420639D01*
X653781Y423926D01*
X658076Y425705D01*
X662724Y425705D01*
X667019Y423926D01*
X670306Y420639D01*
X671927Y416724D01*
X671996Y416604D01*
X672061Y416480D01*
X672075Y416466D01*
X672085Y416448D01*
X672182Y416348D01*
X672275Y416245D01*
X672292Y416234D01*
X672306Y416219D01*
X672424Y416147D01*
X672541Y416070D01*
X672560Y416064D01*
X672577Y416053D01*
X672710Y416012D01*
X672842Y415967D01*
X672862Y415966D01*
X672881Y415960D01*
X673020Y415953D01*
X673159Y415942D01*
X673179Y415945D01*
X673199Y415944D01*
X673335Y415973D01*
X673472Y415996D01*
X673490Y416005D01*
X673510Y416009D01*
X673636Y416070D01*
X673762Y416127D01*
X673778Y416140D01*
X673796Y416148D01*
X673902Y416239D01*
X674010Y416326D01*
X674023Y416342D01*
X674038Y416355D01*
X674118Y416469D01*
X674202Y416580D01*
X674214Y416605D01*
X674221Y416615D01*
X674228Y416634D01*
X674273Y416724D01*
X675894Y420639D01*
X679181Y423926D01*
X683476Y425705D01*
X688124Y425705D01*
X692419Y423926D01*
X695706Y420639D01*
X697327Y416724D01*
X697396Y416604D01*
X697461Y416480D01*
X697475Y416466D01*
X697485Y416448D01*
X697582Y416348D01*
X697675Y416245D01*
X697692Y416234D01*
X697706Y416219D01*
X697824Y416147D01*
X697941Y416070D01*
X697960Y416064D01*
X697977Y416053D01*
X698110Y416012D01*
X698242Y415967D01*
X698262Y415966D01*
X698281Y415960D01*
X698420Y415953D01*
X698559Y415942D01*
X698579Y415945D01*
X698599Y415944D01*
X698735Y415973D01*
X698872Y415996D01*
X698890Y416005D01*
X698910Y416009D01*
X699036Y416070D01*
X699162Y416127D01*
X699178Y416140D01*
X699196Y416148D01*
X699302Y416239D01*
X699410Y416326D01*
X699423Y416342D01*
X699438Y416355D01*
X699518Y416469D01*
X699602Y416580D01*
X699614Y416605D01*
X699621Y416615D01*
X699628Y416634D01*
X699673Y416724D01*
X701294Y420639D01*
X704581Y423926D01*
X708876Y425705D01*
X713524Y425705D01*
X717819Y423926D01*
X721106Y420639D01*
X722885Y416344D01*
X722885Y396456D01*
X721106Y392161D01*
X718176Y389232D01*
X718116Y389153D01*
X718048Y389081D01*
X718019Y389028D01*
X717982Y388980D01*
X717942Y388890D01*
X717894Y388803D01*
X717879Y388744D01*
X717855Y388689D01*
X717840Y388591D01*
X717815Y388495D01*
X717809Y388395D01*
X717805Y388375D01*
X717807Y388362D01*
X717805Y388334D01*
X717805Y350729D01*
X716993Y348768D01*
X715492Y347267D01*
X713531Y346455D01*
X666945Y346455D01*
X666847Y346443D01*
X666748Y346440D01*
X666690Y346423D01*
X666630Y346415D01*
X666538Y346379D01*
X666443Y346351D01*
X666391Y346321D01*
X666334Y346298D01*
X666254Y346240D01*
X666169Y346190D01*
X666093Y346124D01*
X666077Y346112D01*
X666069Y346102D01*
X666048Y346084D01*
X570856Y250892D01*
X570796Y250814D01*
X570728Y250742D01*
X570699Y250689D01*
X570662Y250641D01*
X570622Y250550D01*
X570574Y250463D01*
X570559Y250405D01*
X570535Y250349D01*
X570520Y250251D01*
X570495Y250155D01*
X570489Y250055D01*
X570485Y250035D01*
X570487Y250023D01*
X570485Y249995D01*
X570485Y219964D01*
X570500Y219846D01*
X570507Y219727D01*
X570520Y219689D01*
X570525Y219648D01*
X570568Y219538D01*
X570605Y219425D01*
X570627Y219390D01*
X570642Y219353D01*
X570711Y219257D01*
X570775Y219156D01*
X570805Y219128D01*
X570828Y219095D01*
X570920Y219019D01*
X571007Y218938D01*
X571042Y218918D01*
X571073Y218893D01*
X571181Y218842D01*
X571285Y218784D01*
X571325Y218774D01*
X571361Y218757D01*
X571478Y218735D01*
X571593Y218705D01*
X571653Y218701D01*
X571673Y218697D01*
X571694Y218699D01*
X571754Y218695D01*
X620821Y218695D01*
X622782Y217883D01*
X669858Y170806D01*
X669936Y170746D01*
X670008Y170678D01*
X670061Y170649D01*
X670109Y170612D01*
X670200Y170572D01*
X670287Y170524D01*
X670345Y170509D01*
X670401Y170485D01*
X670499Y170470D01*
X670595Y170445D01*
X670695Y170439D01*
X670715Y170435D01*
X670727Y170437D01*
X670755Y170435D01*
X674084Y170435D01*
X674183Y170447D01*
X674282Y170450D01*
X674340Y170467D01*
X674400Y170475D01*
X674492Y170511D01*
X674587Y170539D01*
X674639Y170569D01*
X674696Y170592D01*
X674776Y170650D01*
X674861Y170700D01*
X674936Y170766D01*
X674953Y170778D01*
X674961Y170788D01*
X674982Y170806D01*
X681078Y176902D01*
X681151Y176997D01*
X681230Y177086D01*
X681248Y177122D01*
X681273Y177154D01*
X681320Y177263D01*
X681374Y177369D01*
X681383Y177408D01*
X681399Y177446D01*
X681418Y177563D01*
X681444Y177679D01*
X681443Y177720D01*
X681449Y177760D01*
X681438Y177878D01*
X681434Y177997D01*
X681423Y178036D01*
X681419Y178076D01*
X681379Y178189D01*
X681346Y178303D01*
X681325Y178337D01*
X681312Y178376D01*
X681245Y178474D01*
X681184Y178577D01*
X681144Y178622D01*
X681133Y178639D01*
X681118Y178652D01*
X681078Y178697D01*
X674115Y185660D01*
X674115Y195340D01*
X681078Y202302D01*
X681151Y202397D01*
X681230Y202486D01*
X681248Y202522D01*
X681273Y202554D01*
X681320Y202663D01*
X681374Y202769D01*
X681383Y202808D01*
X681399Y202846D01*
X681418Y202963D01*
X681444Y203079D01*
X681443Y203120D01*
X681449Y203160D01*
X681438Y203278D01*
X681434Y203397D01*
X681423Y203436D01*
X681419Y203476D01*
X681379Y203589D01*
X681346Y203703D01*
X681325Y203737D01*
X681312Y203776D01*
X681245Y203874D01*
X681184Y203977D01*
X681144Y204022D01*
X681133Y204039D01*
X681118Y204052D01*
X681078Y204097D01*
X674115Y211060D01*
X674115Y220740D01*
X681078Y227702D01*
X681151Y227797D01*
X681230Y227886D01*
X681248Y227922D01*
X681273Y227954D01*
X681320Y228063D01*
X681374Y228169D01*
X681383Y228208D01*
X681399Y228246D01*
X681418Y228363D01*
X681444Y228479D01*
X681443Y228520D01*
X681449Y228560D01*
X681438Y228678D01*
X681434Y228797D01*
X681423Y228836D01*
X681419Y228876D01*
X681379Y228989D01*
X681346Y229103D01*
X681325Y229137D01*
X681312Y229176D01*
X681245Y229274D01*
X681184Y229377D01*
X681144Y229422D01*
X681133Y229439D01*
X681118Y229452D01*
X681078Y229497D01*
X674115Y236460D01*
X674115Y246140D01*
X681078Y253102D01*
X681151Y253197D01*
X681230Y253286D01*
X681248Y253322D01*
X681273Y253354D01*
X681320Y253463D01*
X681374Y253569D01*
X681383Y253608D01*
X681399Y253646D01*
X681418Y253763D01*
X681444Y253879D01*
X681443Y253920D01*
X681449Y253960D01*
X681438Y254078D01*
X681434Y254197D01*
X681423Y254236D01*
X681419Y254276D01*
X681379Y254389D01*
X681346Y254503D01*
X681325Y254537D01*
X681312Y254576D01*
X681245Y254674D01*
X681184Y254777D01*
X681144Y254822D01*
X681133Y254839D01*
X681118Y254852D01*
X681078Y254897D01*
X674115Y261860D01*
X674115Y271540D01*
X680960Y278385D01*
X690640Y278385D01*
X697485Y271540D01*
X697485Y261860D01*
X690522Y254897D01*
X690449Y254803D01*
X690370Y254714D01*
X690352Y254678D01*
X690327Y254646D01*
X690280Y254537D01*
X690226Y254431D01*
X690217Y254392D01*
X690201Y254354D01*
X690182Y254237D01*
X690156Y254121D01*
X690157Y254080D01*
X690151Y254040D01*
X690162Y253922D01*
X690166Y253803D01*
X690177Y253764D01*
X690181Y253724D01*
X690221Y253611D01*
X690254Y253497D01*
X690275Y253462D01*
X690288Y253424D01*
X690355Y253326D01*
X690416Y253223D01*
X690456Y253178D01*
X690467Y253161D01*
X690482Y253148D01*
X690522Y253102D01*
X697603Y246022D01*
X697697Y245949D01*
X697786Y245870D01*
X697822Y245852D01*
X697854Y245827D01*
X697963Y245780D01*
X698069Y245726D01*
X698108Y245717D01*
X698146Y245701D01*
X698263Y245682D01*
X698379Y245656D01*
X698420Y245657D01*
X698460Y245651D01*
X698578Y245662D01*
X698697Y245666D01*
X698736Y245677D01*
X698776Y245681D01*
X698889Y245721D01*
X699003Y245754D01*
X699038Y245775D01*
X699076Y245788D01*
X699174Y245855D01*
X699277Y245916D01*
X699322Y245955D01*
X699339Y245967D01*
X699352Y245982D01*
X699398Y246022D01*
X706360Y252985D01*
X716040Y252985D01*
X722885Y246140D01*
X722885Y236460D01*
X715922Y229497D01*
X715849Y229403D01*
X715770Y229314D01*
X715752Y229278D01*
X715727Y229246D01*
X715680Y229137D01*
X715626Y229031D01*
X715617Y228992D01*
X715601Y228954D01*
X715582Y228837D01*
X715556Y228721D01*
X715557Y228680D01*
X715551Y228640D01*
X715562Y228522D01*
X715566Y228403D01*
X715577Y228364D01*
X715581Y228324D01*
X715621Y228211D01*
X715654Y228097D01*
X715675Y228062D01*
X715688Y228024D01*
X715755Y227926D01*
X715816Y227823D01*
X715856Y227778D01*
X715867Y227761D01*
X715882Y227748D01*
X715922Y227702D01*
X722885Y220740D01*
X722885Y211060D01*
X715922Y204097D01*
X715849Y204003D01*
X715770Y203914D01*
X715752Y203878D01*
X715727Y203846D01*
X715680Y203737D01*
X715626Y203631D01*
X715617Y203592D01*
X715601Y203554D01*
X715582Y203437D01*
X715556Y203321D01*
X715557Y203280D01*
X715551Y203240D01*
X715562Y203122D01*
X715566Y203003D01*
X715577Y202964D01*
X715581Y202924D01*
X715621Y202811D01*
X715654Y202697D01*
X715675Y202662D01*
X715688Y202624D01*
X715755Y202526D01*
X715816Y202423D01*
X715856Y202378D01*
X715867Y202361D01*
X715882Y202348D01*
X715922Y202302D01*
X722885Y195340D01*
X722885Y185660D01*
X715922Y178697D01*
X715849Y178603D01*
X715770Y178514D01*
X715752Y178478D01*
X715727Y178446D01*
X715680Y178337D01*
X715626Y178231D01*
X715617Y178192D01*
X715601Y178154D01*
X715582Y178037D01*
X715556Y177921D01*
X715557Y177880D01*
X715551Y177840D01*
X715562Y177722D01*
X715566Y177603D01*
X715577Y177564D01*
X715581Y177524D01*
X715621Y177411D01*
X715654Y177297D01*
X715675Y177262D01*
X715688Y177224D01*
X715755Y177126D01*
X715816Y177023D01*
X715856Y176978D01*
X715867Y176961D01*
X715882Y176948D01*
X715922Y176902D01*
X722885Y169940D01*
X722885Y160260D01*
X715922Y153298D01*
X715849Y153203D01*
X715770Y153114D01*
X715752Y153078D01*
X715727Y153046D01*
X715680Y152937D01*
X715626Y152831D01*
X715617Y152792D01*
X715601Y152754D01*
X715582Y152637D01*
X715556Y152521D01*
X715557Y152480D01*
X715551Y152440D01*
X715562Y152322D01*
X715566Y152203D01*
X715577Y152164D01*
X715581Y152124D01*
X715621Y152011D01*
X715654Y151897D01*
X715675Y151863D01*
X715688Y151824D01*
X715755Y151726D01*
X715816Y151623D01*
X715856Y151578D01*
X715867Y151561D01*
X715882Y151548D01*
X715922Y151503D01*
X722885Y144540D01*
X722885Y134860D01*
X715922Y127897D01*
X715849Y127803D01*
X715770Y127714D01*
X715752Y127678D01*
X715727Y127646D01*
X715680Y127537D01*
X715626Y127431D01*
X715617Y127392D01*
X715601Y127354D01*
X715582Y127237D01*
X715556Y127121D01*
X715557Y127080D01*
X715551Y127040D01*
X715562Y126922D01*
X715566Y126803D01*
X715577Y126764D01*
X715581Y126724D01*
X715621Y126611D01*
X715654Y126497D01*
X715675Y126462D01*
X715688Y126424D01*
X715755Y126326D01*
X715816Y126223D01*
X715856Y126178D01*
X715867Y126161D01*
X715882Y126148D01*
X715922Y126102D01*
X722885Y119140D01*
X722885Y109460D01*
X715922Y102497D01*
X715849Y102403D01*
X715770Y102314D01*
X715752Y102278D01*
X715727Y102246D01*
X715680Y102137D01*
X715626Y102031D01*
X715617Y101992D01*
X715601Y101954D01*
X715582Y101837D01*
X715556Y101721D01*
X715557Y101680D01*
X715551Y101640D01*
X715562Y101522D01*
X715566Y101403D01*
X715577Y101364D01*
X715581Y101324D01*
X715621Y101211D01*
X715654Y101097D01*
X715675Y101062D01*
X715688Y101024D01*
X715755Y100926D01*
X715816Y100823D01*
X715856Y100778D01*
X715867Y100761D01*
X715882Y100748D01*
X715922Y100702D01*
X722885Y93740D01*
X722885Y84060D01*
X715922Y77097D01*
X715849Y77003D01*
X715770Y76914D01*
X715752Y76878D01*
X715727Y76846D01*
X715680Y76737D01*
X715626Y76631D01*
X715617Y76592D01*
X715601Y76554D01*
X715582Y76437D01*
X715556Y76321D01*
X715557Y76280D01*
X715551Y76240D01*
X715562Y76122D01*
X715566Y76003D01*
X715577Y75964D01*
X715581Y75924D01*
X715621Y75811D01*
X715654Y75697D01*
X715675Y75662D01*
X715688Y75624D01*
X715755Y75526D01*
X715816Y75423D01*
X715856Y75378D01*
X715867Y75361D01*
X715882Y75348D01*
X715922Y75302D01*
X722885Y68340D01*
X722885Y58660D01*
X715922Y51697D01*
X715849Y51603D01*
X715770Y51514D01*
X715752Y51478D01*
X715727Y51446D01*
X715680Y51337D01*
X715626Y51231D01*
X715617Y51192D01*
X715601Y51154D01*
X715582Y51037D01*
X715556Y50921D01*
X715557Y50880D01*
X715551Y50840D01*
X715562Y50722D01*
X715566Y50603D01*
X715577Y50564D01*
X715581Y50524D01*
X715621Y50411D01*
X715654Y50297D01*
X715675Y50262D01*
X715688Y50224D01*
X715755Y50126D01*
X715816Y50023D01*
X715856Y49978D01*
X715867Y49961D01*
X715882Y49948D01*
X715922Y49902D01*
X722885Y42940D01*
X722885Y33260D01*
X716040Y26415D01*
X706360Y26415D01*
G37*
%LPD*%
%LPC*%
G36*
X152132Y273303D02*
X152132Y273303D01*
X145287Y280148D01*
X145287Y289828D01*
X152132Y296673D01*
X159937Y296673D01*
X160075Y296690D01*
X160214Y296703D01*
X160233Y296710D01*
X160253Y296713D01*
X160382Y296764D01*
X160513Y296811D01*
X160530Y296822D01*
X160548Y296830D01*
X160661Y296911D01*
X160776Y296989D01*
X160789Y297005D01*
X160806Y297016D01*
X160894Y297124D01*
X160987Y297228D01*
X160996Y297246D01*
X161009Y297261D01*
X161068Y297387D01*
X161131Y297511D01*
X161136Y297531D01*
X161144Y297549D01*
X161170Y297685D01*
X161201Y297821D01*
X161200Y297842D01*
X161204Y297861D01*
X161195Y298000D01*
X161191Y298139D01*
X161185Y298159D01*
X161184Y298179D01*
X161141Y298311D01*
X161103Y298445D01*
X161092Y298462D01*
X161086Y298481D01*
X161012Y298599D01*
X160941Y298719D01*
X160923Y298740D01*
X160916Y298750D01*
X160901Y298764D01*
X160835Y298839D01*
X105960Y353714D01*
X36455Y423219D01*
X35217Y426207D01*
X35217Y611383D01*
X36455Y614371D01*
X57625Y635541D01*
X60613Y636779D01*
X604867Y636779D01*
X607855Y635541D01*
X634109Y609286D01*
X634188Y609226D01*
X634260Y609158D01*
X634313Y609129D01*
X634361Y609092D01*
X634452Y609052D01*
X634538Y609004D01*
X634597Y608989D01*
X634652Y608965D01*
X634750Y608950D01*
X634846Y608925D01*
X634946Y608919D01*
X634967Y608915D01*
X634979Y608917D01*
X635007Y608915D01*
X637390Y608915D01*
X641806Y607086D01*
X645186Y603706D01*
X647015Y599290D01*
X647015Y594510D01*
X645186Y590094D01*
X641806Y586714D01*
X637390Y584885D01*
X632610Y584885D01*
X628194Y586714D01*
X624814Y590094D01*
X622985Y594510D01*
X622985Y596893D01*
X622973Y596991D01*
X622970Y597090D01*
X622953Y597149D01*
X622945Y597209D01*
X622909Y597301D01*
X622881Y597396D01*
X622851Y597448D01*
X622828Y597504D01*
X622770Y597584D01*
X622720Y597670D01*
X622654Y597745D01*
X622642Y597762D01*
X622632Y597770D01*
X622614Y597791D01*
X600255Y620150D01*
X600176Y620210D01*
X600104Y620278D01*
X600051Y620307D01*
X600003Y620344D01*
X599912Y620384D01*
X599826Y620432D01*
X599767Y620447D01*
X599712Y620471D01*
X599614Y620486D01*
X599518Y620511D01*
X599418Y620517D01*
X599397Y620521D01*
X599385Y620519D01*
X599357Y620521D01*
X66123Y620521D01*
X66025Y620509D01*
X65926Y620506D01*
X65867Y620489D01*
X65807Y620481D01*
X65715Y620445D01*
X65620Y620417D01*
X65568Y620387D01*
X65512Y620364D01*
X65432Y620306D01*
X65346Y620256D01*
X65271Y620190D01*
X65254Y620178D01*
X65246Y620168D01*
X65225Y620150D01*
X51846Y606771D01*
X51786Y606692D01*
X51718Y606620D01*
X51689Y606567D01*
X51652Y606519D01*
X51612Y606428D01*
X51564Y606342D01*
X51549Y606283D01*
X51525Y606228D01*
X51510Y606130D01*
X51485Y606034D01*
X51479Y605934D01*
X51475Y605913D01*
X51477Y605901D01*
X51475Y605873D01*
X51475Y431717D01*
X51487Y431619D01*
X51490Y431520D01*
X51507Y431461D01*
X51515Y431401D01*
X51551Y431309D01*
X51579Y431214D01*
X51609Y431162D01*
X51632Y431106D01*
X51690Y431026D01*
X51740Y430940D01*
X51806Y430865D01*
X51818Y430848D01*
X51828Y430840D01*
X51846Y430819D01*
X117456Y365210D01*
X157203Y325462D01*
X157313Y325377D01*
X157420Y325288D01*
X157439Y325280D01*
X157455Y325267D01*
X157583Y325212D01*
X157708Y325153D01*
X157728Y325149D01*
X157747Y325141D01*
X157884Y325119D01*
X158020Y325093D01*
X158041Y325094D01*
X158061Y325091D01*
X158200Y325104D01*
X158338Y325113D01*
X158357Y325119D01*
X158377Y325121D01*
X158508Y325168D01*
X158640Y325211D01*
X158657Y325222D01*
X158677Y325229D01*
X158792Y325307D01*
X158909Y325381D01*
X158923Y325396D01*
X158940Y325407D01*
X159032Y325511D01*
X159127Y325613D01*
X159137Y325630D01*
X159150Y325646D01*
X159213Y325770D01*
X159280Y325891D01*
X159286Y325911D01*
X159295Y325929D01*
X159325Y326065D01*
X159360Y326199D01*
X159362Y326227D01*
X159364Y326239D01*
X159364Y326260D01*
X159370Y326360D01*
X159370Y448516D01*
X160608Y451503D01*
X234738Y525634D01*
X248125Y539021D01*
X251113Y540259D01*
X254347Y540259D01*
X257335Y539021D01*
X259621Y536735D01*
X260859Y533747D01*
X260859Y530513D01*
X259621Y527525D01*
X246234Y514138D01*
X175999Y443904D01*
X175939Y443825D01*
X175871Y443753D01*
X175842Y443700D01*
X175804Y443652D01*
X175765Y443561D01*
X175717Y443475D01*
X175702Y443416D01*
X175678Y443360D01*
X175663Y443262D01*
X175638Y443167D01*
X175631Y443067D01*
X175628Y443046D01*
X175629Y443034D01*
X175628Y443006D01*
X175628Y302054D01*
X174390Y299067D01*
X172103Y296780D01*
X169116Y295542D01*
X166007Y295542D01*
X165869Y295525D01*
X165730Y295512D01*
X165711Y295505D01*
X165691Y295503D01*
X165562Y295451D01*
X165431Y295404D01*
X165414Y295393D01*
X165395Y295386D01*
X165283Y295304D01*
X165168Y295226D01*
X165154Y295211D01*
X165138Y295199D01*
X165049Y295091D01*
X164957Y294987D01*
X164948Y294969D01*
X164935Y294954D01*
X164876Y294828D01*
X164813Y294704D01*
X164808Y294684D01*
X164800Y294666D01*
X164774Y294530D01*
X164743Y294394D01*
X164744Y294374D01*
X164740Y294354D01*
X164748Y294215D01*
X164753Y294076D01*
X164758Y294056D01*
X164760Y294036D01*
X164802Y293904D01*
X164841Y293770D01*
X164851Y293753D01*
X164858Y293734D01*
X164932Y293616D01*
X165003Y293496D01*
X165021Y293475D01*
X165028Y293465D01*
X165043Y293451D01*
X165109Y293376D01*
X168657Y289828D01*
X168657Y280148D01*
X161812Y273303D01*
X152132Y273303D01*
G37*
%LPD*%
%LPC*%
G36*
X581876Y450595D02*
X581876Y450595D01*
X577581Y452374D01*
X574294Y455661D01*
X572515Y459956D01*
X572515Y479844D01*
X574294Y484139D01*
X577581Y487426D01*
X581876Y489205D01*
X586524Y489205D01*
X590819Y487426D01*
X594106Y484139D01*
X595727Y480224D01*
X595796Y480104D01*
X595861Y479980D01*
X595875Y479966D01*
X595885Y479948D01*
X595982Y479848D01*
X596075Y479745D01*
X596092Y479734D01*
X596106Y479719D01*
X596224Y479647D01*
X596341Y479570D01*
X596360Y479564D01*
X596377Y479553D01*
X596510Y479512D01*
X596642Y479467D01*
X596662Y479466D01*
X596681Y479460D01*
X596820Y479453D01*
X596959Y479442D01*
X596979Y479445D01*
X596999Y479444D01*
X597135Y479473D01*
X597272Y479496D01*
X597290Y479505D01*
X597310Y479509D01*
X597436Y479570D01*
X597562Y479627D01*
X597578Y479640D01*
X597596Y479648D01*
X597702Y479739D01*
X597810Y479826D01*
X597823Y479842D01*
X597838Y479855D01*
X597918Y479969D01*
X598002Y480080D01*
X598014Y480105D01*
X598021Y480115D01*
X598028Y480134D01*
X598073Y480224D01*
X599694Y484139D01*
X602981Y487426D01*
X607276Y489205D01*
X611924Y489205D01*
X616219Y487426D01*
X619506Y484139D01*
X621127Y480224D01*
X621196Y480104D01*
X621261Y479980D01*
X621275Y479966D01*
X621285Y479948D01*
X621382Y479848D01*
X621475Y479745D01*
X621492Y479734D01*
X621506Y479719D01*
X621624Y479647D01*
X621741Y479570D01*
X621760Y479564D01*
X621777Y479553D01*
X621910Y479512D01*
X622042Y479467D01*
X622062Y479466D01*
X622081Y479460D01*
X622220Y479453D01*
X622359Y479442D01*
X622379Y479445D01*
X622399Y479444D01*
X622535Y479473D01*
X622672Y479496D01*
X622690Y479505D01*
X622710Y479509D01*
X622836Y479570D01*
X622962Y479627D01*
X622978Y479640D01*
X622996Y479648D01*
X623102Y479739D01*
X623210Y479826D01*
X623223Y479842D01*
X623238Y479855D01*
X623318Y479969D01*
X623402Y480080D01*
X623414Y480105D01*
X623421Y480115D01*
X623428Y480134D01*
X623473Y480224D01*
X625094Y484139D01*
X626500Y485544D01*
X626560Y485623D01*
X626628Y485695D01*
X626657Y485748D01*
X626694Y485796D01*
X626734Y485886D01*
X626782Y485973D01*
X626797Y486032D01*
X626821Y486087D01*
X626836Y486185D01*
X626861Y486281D01*
X626867Y486381D01*
X626871Y486401D01*
X626869Y486414D01*
X626871Y486442D01*
X626871Y499027D01*
X626859Y499125D01*
X626856Y499224D01*
X626839Y499283D01*
X626831Y499343D01*
X626795Y499435D01*
X626767Y499530D01*
X626737Y499582D01*
X626714Y499638D01*
X626656Y499718D01*
X626606Y499804D01*
X626540Y499879D01*
X626528Y499896D01*
X626518Y499904D01*
X626500Y499925D01*
X610415Y516010D01*
X610336Y516070D01*
X610264Y516138D01*
X610211Y516167D01*
X610163Y516204D01*
X610072Y516244D01*
X609986Y516292D01*
X609927Y516307D01*
X609872Y516331D01*
X609774Y516346D01*
X609678Y516371D01*
X609578Y516377D01*
X609557Y516381D01*
X609545Y516379D01*
X609517Y516381D01*
X527973Y516381D01*
X524985Y517619D01*
X522520Y520084D01*
X458091Y584514D01*
X458012Y584574D01*
X457940Y584642D01*
X457887Y584671D01*
X457839Y584708D01*
X457748Y584748D01*
X457662Y584796D01*
X457603Y584811D01*
X457548Y584835D01*
X457450Y584850D01*
X457354Y584875D01*
X457254Y584881D01*
X457234Y584885D01*
X457221Y584883D01*
X457193Y584885D01*
X454810Y584885D01*
X450394Y586714D01*
X447014Y590094D01*
X445185Y594510D01*
X445185Y599290D01*
X447014Y603706D01*
X450394Y607086D01*
X454810Y608915D01*
X459590Y608915D01*
X464006Y607086D01*
X467386Y603706D01*
X469215Y599290D01*
X469215Y596907D01*
X469227Y596809D01*
X469230Y596710D01*
X469247Y596651D01*
X469255Y596591D01*
X469291Y596499D01*
X469319Y596404D01*
X469349Y596352D01*
X469372Y596296D01*
X469430Y596216D01*
X469480Y596130D01*
X469546Y596055D01*
X469558Y596038D01*
X469568Y596030D01*
X469586Y596009D01*
X470863Y594733D01*
X470942Y594672D01*
X471014Y594604D01*
X471067Y594575D01*
X471115Y594538D01*
X471205Y594498D01*
X471292Y594450D01*
X471351Y594435D01*
X471406Y594411D01*
X471504Y594396D01*
X471600Y594371D01*
X471700Y594365D01*
X471720Y594361D01*
X471733Y594363D01*
X471761Y594361D01*
X480061Y594361D01*
X480061Y586061D01*
X480073Y585963D01*
X480076Y585864D01*
X480093Y585805D01*
X480101Y585745D01*
X480137Y585653D01*
X480165Y585558D01*
X480195Y585506D01*
X480218Y585450D01*
X480276Y585369D01*
X480326Y585284D01*
X480392Y585209D01*
X480404Y585192D01*
X480414Y585184D01*
X480433Y585163D01*
X532585Y533010D01*
X532664Y532950D01*
X532736Y532882D01*
X532789Y532853D01*
X532837Y532816D01*
X532928Y532776D01*
X533014Y532728D01*
X533073Y532713D01*
X533128Y532689D01*
X533226Y532674D01*
X533322Y532649D01*
X533422Y532643D01*
X533443Y532639D01*
X533455Y532641D01*
X533483Y532639D01*
X615027Y532639D01*
X618015Y531401D01*
X641891Y507525D01*
X643129Y504537D01*
X643129Y486442D01*
X643141Y486344D01*
X643144Y486245D01*
X643161Y486186D01*
X643169Y486126D01*
X643205Y486034D01*
X643233Y485939D01*
X643263Y485887D01*
X643286Y485831D01*
X643344Y485750D01*
X643394Y485665D01*
X643460Y485590D01*
X643472Y485573D01*
X643482Y485565D01*
X643500Y485544D01*
X644906Y484139D01*
X646685Y479844D01*
X646685Y459956D01*
X644906Y455661D01*
X641619Y452374D01*
X637324Y450595D01*
X632676Y450595D01*
X628381Y452374D01*
X625094Y455661D01*
X623473Y459576D01*
X623404Y459697D01*
X623339Y459820D01*
X623325Y459835D01*
X623315Y459852D01*
X623218Y459952D01*
X623125Y460055D01*
X623108Y460066D01*
X623094Y460081D01*
X622975Y460153D01*
X622859Y460230D01*
X622840Y460236D01*
X622823Y460247D01*
X622690Y460288D01*
X622558Y460333D01*
X622538Y460334D01*
X622519Y460340D01*
X622380Y460347D01*
X622241Y460358D01*
X622221Y460355D01*
X622201Y460356D01*
X622065Y460327D01*
X621928Y460304D01*
X621909Y460295D01*
X621890Y460291D01*
X621764Y460230D01*
X621638Y460173D01*
X621622Y460160D01*
X621604Y460152D01*
X621498Y460061D01*
X621390Y459974D01*
X621377Y459958D01*
X621362Y459945D01*
X621282Y459831D01*
X621198Y459720D01*
X621186Y459695D01*
X621179Y459685D01*
X621172Y459666D01*
X621127Y459576D01*
X619506Y455661D01*
X616219Y452374D01*
X611924Y450595D01*
X607276Y450595D01*
X602981Y452374D01*
X599694Y455661D01*
X598073Y459576D01*
X598004Y459697D01*
X597939Y459820D01*
X597925Y459835D01*
X597915Y459852D01*
X597818Y459952D01*
X597725Y460055D01*
X597708Y460066D01*
X597694Y460081D01*
X597575Y460153D01*
X597459Y460230D01*
X597440Y460236D01*
X597423Y460247D01*
X597290Y460288D01*
X597158Y460333D01*
X597138Y460334D01*
X597119Y460340D01*
X596980Y460347D01*
X596841Y460358D01*
X596821Y460355D01*
X596801Y460356D01*
X596665Y460327D01*
X596528Y460304D01*
X596509Y460295D01*
X596490Y460291D01*
X596364Y460230D01*
X596238Y460173D01*
X596222Y460160D01*
X596204Y460152D01*
X596098Y460061D01*
X595990Y459974D01*
X595977Y459958D01*
X595962Y459945D01*
X595882Y459831D01*
X595798Y459720D01*
X595786Y459695D01*
X595779Y459685D01*
X595772Y459666D01*
X595727Y459576D01*
X594106Y455661D01*
X590819Y452374D01*
X586524Y450595D01*
X581876Y450595D01*
G37*
%LPD*%
%LPC*%
G36*
X352505Y648915D02*
X352505Y648915D01*
X346417Y651437D01*
X341757Y656097D01*
X339235Y662185D01*
X339235Y668775D01*
X341757Y674863D01*
X346417Y679523D01*
X352505Y682045D01*
X384095Y682045D01*
X390183Y679523D01*
X394843Y674863D01*
X397365Y668775D01*
X397365Y662185D01*
X394843Y656097D01*
X390183Y651437D01*
X384095Y648915D01*
X352505Y648915D01*
G37*
%LPD*%
%LPC*%
G36*
X292903Y486733D02*
X292903Y486733D01*
X290019Y487928D01*
X287812Y490135D01*
X286617Y493019D01*
X286617Y496141D01*
X287812Y499025D01*
X288758Y499970D01*
X288818Y500049D01*
X288886Y500121D01*
X288915Y500174D01*
X288952Y500222D01*
X288992Y500313D01*
X289040Y500399D01*
X289055Y500458D01*
X289079Y500514D01*
X289094Y500612D01*
X289119Y500707D01*
X289125Y500807D01*
X289129Y500828D01*
X289127Y500840D01*
X289129Y500868D01*
X289129Y568293D01*
X289941Y570254D01*
X320231Y600544D01*
X320292Y600622D01*
X320360Y600694D01*
X320389Y600747D01*
X320426Y600795D01*
X320466Y600886D01*
X320513Y600973D01*
X320529Y601031D01*
X320553Y601087D01*
X320568Y601185D01*
X320593Y601281D01*
X320599Y601381D01*
X320602Y601401D01*
X320601Y601413D01*
X320603Y601441D01*
X320603Y602779D01*
X321798Y605663D01*
X324005Y607870D01*
X326889Y609065D01*
X330011Y609065D01*
X332895Y607870D01*
X335102Y605663D01*
X336297Y602779D01*
X336297Y599657D01*
X335102Y596773D01*
X332895Y594566D01*
X330011Y593371D01*
X328673Y593371D01*
X328575Y593359D01*
X328476Y593356D01*
X328418Y593339D01*
X328358Y593331D01*
X328266Y593295D01*
X328171Y593267D01*
X328118Y593237D01*
X328062Y593214D01*
X327982Y593156D01*
X327897Y593106D01*
X327821Y593040D01*
X327805Y593028D01*
X327797Y593018D01*
X327776Y593000D01*
X300170Y565394D01*
X300110Y565316D01*
X300042Y565244D01*
X300013Y565191D01*
X299976Y565143D01*
X299936Y565052D01*
X299888Y564965D01*
X299873Y564907D01*
X299849Y564851D01*
X299834Y564753D01*
X299809Y564657D01*
X299803Y564557D01*
X299799Y564537D01*
X299801Y564525D01*
X299799Y564497D01*
X299799Y500868D01*
X299811Y500770D01*
X299814Y500671D01*
X299831Y500613D01*
X299839Y500552D01*
X299875Y500460D01*
X299903Y500365D01*
X299933Y500313D01*
X299956Y500257D01*
X300014Y500177D01*
X300064Y500091D01*
X300130Y500016D01*
X300142Y499999D01*
X300152Y499992D01*
X300170Y499970D01*
X301116Y499025D01*
X302311Y496141D01*
X302311Y493019D01*
X301116Y490135D01*
X298909Y487928D01*
X296025Y486733D01*
X292903Y486733D01*
G37*
%LPD*%
%LPC*%
G36*
X389599Y463323D02*
X389599Y463323D01*
X386715Y464518D01*
X384508Y466725D01*
X383313Y469609D01*
X383313Y472731D01*
X384508Y475615D01*
X386715Y477822D01*
X389599Y479017D01*
X391296Y479017D01*
X391394Y479029D01*
X391493Y479032D01*
X391551Y479049D01*
X391611Y479057D01*
X391703Y479093D01*
X391798Y479121D01*
X391851Y479151D01*
X391907Y479174D01*
X391987Y479232D01*
X392072Y479282D01*
X392148Y479348D01*
X392164Y479360D01*
X392172Y479370D01*
X392193Y479388D01*
X426122Y513317D01*
X426182Y513395D01*
X426250Y513467D01*
X426279Y513520D01*
X426316Y513568D01*
X426356Y513659D01*
X426404Y513746D01*
X426419Y513804D01*
X426443Y513860D01*
X426458Y513958D01*
X426483Y514054D01*
X426489Y514154D01*
X426493Y514174D01*
X426491Y514186D01*
X426493Y514214D01*
X426493Y515911D01*
X427688Y518795D01*
X429895Y521002D01*
X432779Y522197D01*
X435901Y522197D01*
X438785Y521002D01*
X440992Y518795D01*
X442187Y515911D01*
X442187Y512789D01*
X440992Y509905D01*
X438785Y507698D01*
X435901Y506503D01*
X434204Y506503D01*
X434106Y506491D01*
X434007Y506488D01*
X433949Y506471D01*
X433889Y506463D01*
X433797Y506427D01*
X433702Y506399D01*
X433649Y506369D01*
X433593Y506346D01*
X433513Y506288D01*
X433428Y506238D01*
X433352Y506172D01*
X433336Y506160D01*
X433328Y506150D01*
X433307Y506132D01*
X399378Y472203D01*
X399318Y472125D01*
X399250Y472053D01*
X399221Y472000D01*
X399184Y471952D01*
X399144Y471861D01*
X399096Y471774D01*
X399081Y471716D01*
X399057Y471660D01*
X399042Y471562D01*
X399017Y471466D01*
X399011Y471366D01*
X399007Y471346D01*
X399009Y471334D01*
X399007Y471306D01*
X399007Y469609D01*
X397812Y466725D01*
X395605Y464518D01*
X392721Y463323D01*
X389599Y463323D01*
G37*
%LPD*%
%LPC*%
G36*
X708876Y450595D02*
X708876Y450595D01*
X704581Y452374D01*
X701294Y455661D01*
X699515Y459956D01*
X699515Y479844D01*
X701294Y484139D01*
X704581Y487426D01*
X708876Y489205D01*
X713524Y489205D01*
X717819Y487426D01*
X721106Y484139D01*
X722885Y479844D01*
X722885Y459956D01*
X721106Y455661D01*
X717819Y452374D01*
X713524Y450595D01*
X708876Y450595D01*
G37*
%LPD*%
%LPC*%
G36*
X474106Y710085D02*
X474106Y710085D01*
X471725Y712466D01*
X471725Y735334D01*
X474106Y737715D01*
X496974Y737715D01*
X499355Y735334D01*
X499355Y712466D01*
X496974Y710085D01*
X474106Y710085D01*
G37*
%LPD*%
%LPC*%
G36*
X606769Y239803D02*
X606769Y239803D01*
X603885Y240998D01*
X601678Y243205D01*
X600483Y246089D01*
X600483Y249211D01*
X601678Y252095D01*
X603885Y254302D01*
X606769Y255497D01*
X609736Y255497D01*
X609834Y255509D01*
X609933Y255512D01*
X609991Y255529D01*
X610051Y255537D01*
X610143Y255573D01*
X610238Y255601D01*
X610291Y255631D01*
X610347Y255654D01*
X610427Y255712D01*
X610512Y255762D01*
X610588Y255828D01*
X610604Y255840D01*
X610612Y255850D01*
X610633Y255868D01*
X629322Y274557D01*
X629382Y274635D01*
X629450Y274707D01*
X629479Y274760D01*
X629516Y274808D01*
X629556Y274899D01*
X629604Y274986D01*
X629619Y275044D01*
X629643Y275100D01*
X629658Y275198D01*
X629683Y275294D01*
X629689Y275394D01*
X629693Y275414D01*
X629691Y275426D01*
X629693Y275454D01*
X629693Y277151D01*
X630888Y280035D01*
X633095Y282242D01*
X635979Y283437D01*
X639101Y283437D01*
X641985Y282242D01*
X644192Y280035D01*
X645387Y277151D01*
X645387Y274029D01*
X644192Y271145D01*
X641985Y268938D01*
X639101Y267743D01*
X637404Y267743D01*
X637306Y267731D01*
X637207Y267728D01*
X637149Y267711D01*
X637089Y267703D01*
X636997Y267667D01*
X636902Y267639D01*
X636849Y267609D01*
X636793Y267586D01*
X636713Y267528D01*
X636628Y267478D01*
X636552Y267412D01*
X636536Y267400D01*
X636528Y267390D01*
X636507Y267372D01*
X616548Y247413D01*
X616488Y247335D01*
X616420Y247263D01*
X616391Y247210D01*
X616354Y247162D01*
X616314Y247071D01*
X616266Y246984D01*
X616251Y246926D01*
X616227Y246870D01*
X616212Y246772D01*
X616187Y246676D01*
X616181Y246576D01*
X616177Y246556D01*
X616179Y246544D01*
X616177Y246516D01*
X616177Y246089D01*
X614982Y243205D01*
X612775Y240998D01*
X609891Y239803D01*
X606769Y239803D01*
G37*
%LPD*%
%LPC*%
G36*
X676166Y584885D02*
X676166Y584885D01*
X673785Y587266D01*
X673785Y606534D01*
X676166Y608915D01*
X695434Y608915D01*
X697815Y606534D01*
X697815Y587266D01*
X695434Y584885D01*
X676166Y584885D01*
G37*
%LPD*%
%LPC*%
G36*
X498366Y584885D02*
X498366Y584885D01*
X495985Y587266D01*
X495985Y606534D01*
X498366Y608915D01*
X517634Y608915D01*
X520015Y606534D01*
X520015Y587266D01*
X517634Y584885D01*
X498366Y584885D01*
G37*
%LPD*%
%LPC*%
G36*
X256198Y291719D02*
X256198Y291719D01*
X251390Y293711D01*
X247711Y297390D01*
X245719Y302198D01*
X245719Y307402D01*
X247711Y312210D01*
X251390Y315889D01*
X256198Y317881D01*
X261402Y317881D01*
X266210Y315889D01*
X269889Y312210D01*
X271881Y307402D01*
X271881Y302198D01*
X269889Y297390D01*
X266210Y293711D01*
X261402Y291719D01*
X256198Y291719D01*
G37*
%LPD*%
%LPC*%
G36*
X170398Y507619D02*
X170398Y507619D01*
X165590Y509611D01*
X161911Y513290D01*
X159919Y518098D01*
X159919Y523302D01*
X161911Y528110D01*
X165590Y531789D01*
X170398Y533781D01*
X175602Y533781D01*
X180410Y531789D01*
X184089Y528110D01*
X186081Y523302D01*
X186081Y518098D01*
X184089Y513290D01*
X180410Y509611D01*
X175602Y507619D01*
X170398Y507619D01*
G37*
%LPD*%
%LPC*%
G36*
X74398Y507619D02*
X74398Y507619D01*
X69590Y509611D01*
X65911Y513290D01*
X63919Y518098D01*
X63919Y523302D01*
X65911Y528110D01*
X69590Y531789D01*
X74398Y533781D01*
X79602Y533781D01*
X84410Y531789D01*
X88089Y528110D01*
X90081Y523302D01*
X90081Y518098D01*
X88089Y513290D01*
X84410Y509611D01*
X79602Y507619D01*
X74398Y507619D01*
G37*
%LPD*%
%LPC*%
G36*
X620762Y51561D02*
X620762Y51561D01*
X613917Y58406D01*
X613917Y68086D01*
X620762Y74931D01*
X630442Y74931D01*
X637287Y68086D01*
X637287Y58406D01*
X630442Y51561D01*
X620762Y51561D01*
G37*
%LPD*%
%LPC*%
G36*
X562342Y51307D02*
X562342Y51307D01*
X555497Y58152D01*
X555497Y67832D01*
X562342Y74677D01*
X572022Y74677D01*
X578867Y67832D01*
X578867Y58152D01*
X572022Y51307D01*
X562342Y51307D01*
G37*
%LPD*%
%LPC*%
G36*
X562342Y103123D02*
X562342Y103123D01*
X555497Y109968D01*
X555497Y119648D01*
X562342Y126493D01*
X572022Y126493D01*
X578867Y119648D01*
X578867Y109968D01*
X572022Y103123D01*
X562342Y103123D01*
G37*
%LPD*%
%LPC*%
G36*
X96252Y306831D02*
X96252Y306831D01*
X89407Y313676D01*
X89407Y323356D01*
X96252Y330201D01*
X105932Y330201D01*
X112777Y323356D01*
X112777Y313676D01*
X105932Y306831D01*
X96252Y306831D01*
G37*
%LPD*%
%LPC*%
G36*
X620762Y102869D02*
X620762Y102869D01*
X613917Y109714D01*
X613917Y119394D01*
X620762Y126239D01*
X630442Y126239D01*
X637287Y119394D01*
X637287Y109714D01*
X630442Y102869D01*
X620762Y102869D01*
G37*
%LPD*%
%LPC*%
G36*
X323799Y697979D02*
X323799Y697979D01*
X323799Y720297D01*
X324529Y720181D01*
X326594Y719510D01*
X328528Y718525D01*
X330284Y717249D01*
X331819Y715714D01*
X333095Y713958D01*
X334080Y712024D01*
X334751Y709959D01*
X335091Y707815D01*
X335091Y697979D01*
X323799Y697979D01*
G37*
%LPD*%
%LPC*%
G36*
X370799Y727979D02*
X370799Y727979D01*
X370799Y739271D01*
X380635Y739271D01*
X382779Y738931D01*
X384844Y738260D01*
X386778Y737275D01*
X388534Y735999D01*
X390069Y734464D01*
X391345Y732708D01*
X392330Y730774D01*
X393001Y728709D01*
X393117Y727979D01*
X370799Y727979D01*
G37*
%LPD*%
%LPC*%
G36*
X343483Y727979D02*
X343483Y727979D01*
X343599Y728709D01*
X344270Y730774D01*
X345255Y732708D01*
X346531Y734464D01*
X348066Y735999D01*
X349822Y737275D01*
X351756Y738260D01*
X353821Y738931D01*
X355965Y739271D01*
X365801Y739271D01*
X365801Y727979D01*
X343483Y727979D01*
G37*
%LPD*%
%LPC*%
G36*
X323799Y692981D02*
X323799Y692981D01*
X335091Y692981D01*
X335091Y683145D01*
X334751Y681001D01*
X334080Y678936D01*
X333095Y677002D01*
X331819Y675246D01*
X330284Y673711D01*
X328528Y672435D01*
X326594Y671450D01*
X324529Y670779D01*
X323799Y670663D01*
X323799Y692981D01*
G37*
%LPD*%
%LPC*%
G36*
X370799Y711689D02*
X370799Y711689D01*
X370799Y722981D01*
X393117Y722981D01*
X393001Y722251D01*
X392330Y720186D01*
X391345Y718252D01*
X390069Y716496D01*
X388534Y714961D01*
X386778Y713685D01*
X384844Y712700D01*
X382779Y712029D01*
X380635Y711689D01*
X370799Y711689D01*
G37*
%LPD*%
%LPC*%
G36*
X307509Y697979D02*
X307509Y697979D01*
X307509Y707815D01*
X307849Y709959D01*
X308520Y712024D01*
X309505Y713958D01*
X310781Y715714D01*
X312316Y717249D01*
X314072Y718525D01*
X316006Y719510D01*
X318071Y720181D01*
X318801Y720297D01*
X318801Y697979D01*
X307509Y697979D01*
G37*
%LPD*%
%LPC*%
G36*
X318071Y670779D02*
X318071Y670779D01*
X316006Y671450D01*
X314072Y672435D01*
X312316Y673711D01*
X310781Y675246D01*
X309505Y677002D01*
X308520Y678936D01*
X307849Y681001D01*
X307509Y683145D01*
X307509Y692981D01*
X318801Y692981D01*
X318801Y670663D01*
X318071Y670779D01*
G37*
%LPD*%
%LPC*%
G36*
X355965Y711689D02*
X355965Y711689D01*
X353821Y712029D01*
X351756Y712700D01*
X349822Y713685D01*
X348066Y714961D01*
X346531Y716496D01*
X345255Y718252D01*
X344270Y720186D01*
X343599Y722251D01*
X343483Y722981D01*
X365801Y722981D01*
X365801Y711689D01*
X355965Y711689D01*
G37*
%LPD*%
%LPC*%
G36*
X591529Y156997D02*
X591529Y156997D01*
X588645Y158192D01*
X586438Y160399D01*
X585243Y163283D01*
X585243Y166405D01*
X586438Y169289D01*
X588645Y171496D01*
X591529Y172691D01*
X594651Y172691D01*
X597535Y171496D01*
X599742Y169289D01*
X600937Y166405D01*
X600937Y163283D01*
X599742Y160399D01*
X597535Y158192D01*
X594651Y156997D01*
X591529Y156997D01*
G37*
%LPD*%
%LPC*%
G36*
X563589Y156997D02*
X563589Y156997D01*
X560705Y158192D01*
X558498Y160399D01*
X557303Y163283D01*
X557303Y166405D01*
X558498Y169289D01*
X560705Y171496D01*
X563589Y172691D01*
X566711Y172691D01*
X569595Y171496D01*
X571802Y169289D01*
X572997Y166405D01*
X572997Y163283D01*
X571802Y160399D01*
X569595Y158192D01*
X566711Y156997D01*
X563589Y156997D01*
G37*
%LPD*%
%LPC*%
G36*
X688339Y472439D02*
X688339Y472439D01*
X688339Y487379D01*
X689700Y486936D01*
X691125Y486210D01*
X692419Y485270D01*
X693550Y484139D01*
X694490Y482845D01*
X695216Y481420D01*
X695711Y479899D01*
X695961Y478320D01*
X695961Y472439D01*
X688339Y472439D01*
G37*
%LPD*%
%LPC*%
G36*
X662939Y472439D02*
X662939Y472439D01*
X662939Y487379D01*
X664300Y486936D01*
X665725Y486210D01*
X667019Y485270D01*
X668150Y484139D01*
X669090Y482845D01*
X669816Y481420D01*
X670311Y479899D01*
X670561Y478320D01*
X670561Y472439D01*
X662939Y472439D01*
G37*
%LPD*%
%LPC*%
G36*
X662939Y467361D02*
X662939Y467361D01*
X670561Y467361D01*
X670561Y461480D01*
X670311Y459901D01*
X669816Y458380D01*
X669090Y456955D01*
X668150Y455661D01*
X667019Y454530D01*
X665725Y453590D01*
X664300Y452864D01*
X662939Y452421D01*
X662939Y467361D01*
G37*
%LPD*%
%LPC*%
G36*
X688339Y467361D02*
X688339Y467361D01*
X695961Y467361D01*
X695961Y461480D01*
X695711Y459901D01*
X695216Y458380D01*
X694490Y456955D01*
X693550Y455661D01*
X692419Y454530D01*
X691125Y453590D01*
X689700Y452864D01*
X688339Y452421D01*
X688339Y467361D01*
G37*
%LPD*%
%LPC*%
G36*
X650239Y472439D02*
X650239Y472439D01*
X650239Y478320D01*
X650489Y479899D01*
X650984Y481420D01*
X651710Y482845D01*
X652650Y484139D01*
X653781Y485270D01*
X655075Y486210D01*
X656500Y486936D01*
X657861Y487379D01*
X657861Y472439D01*
X650239Y472439D01*
G37*
%LPD*%
%LPC*%
G36*
X675639Y472439D02*
X675639Y472439D01*
X675639Y478320D01*
X675889Y479899D01*
X676384Y481420D01*
X677110Y482845D01*
X678050Y484139D01*
X679181Y485270D01*
X680475Y486210D01*
X681900Y486936D01*
X683261Y487379D01*
X683261Y472439D01*
X675639Y472439D01*
G37*
%LPD*%
%LPC*%
G36*
X681900Y452864D02*
X681900Y452864D01*
X680475Y453590D01*
X679181Y454530D01*
X678050Y455661D01*
X677110Y456955D01*
X676384Y458380D01*
X675889Y459901D01*
X675639Y461480D01*
X675639Y467361D01*
X683261Y467361D01*
X683261Y452421D01*
X681900Y452864D01*
G37*
%LPD*%
%LPC*%
G36*
X656500Y452864D02*
X656500Y452864D01*
X655075Y453590D01*
X653781Y454530D01*
X652650Y455661D01*
X651710Y456955D01*
X650984Y458380D01*
X650489Y459901D01*
X650239Y461480D01*
X650239Y467361D01*
X657861Y467361D01*
X657861Y452421D01*
X656500Y452864D01*
G37*
%LPD*%
%LPC*%
G36*
X538079Y726439D02*
X538079Y726439D01*
X538079Y735942D01*
X538418Y735888D01*
X540258Y735290D01*
X541982Y734412D01*
X543547Y733275D01*
X544915Y731907D01*
X546052Y730342D01*
X546930Y728618D01*
X547528Y726778D01*
X547582Y726439D01*
X538079Y726439D01*
G37*
%LPD*%
%LPC*%
G36*
X523498Y726439D02*
X523498Y726439D01*
X523552Y726778D01*
X524150Y728618D01*
X525028Y730342D01*
X526165Y731907D01*
X527533Y733275D01*
X529098Y734412D01*
X530822Y735290D01*
X532662Y735888D01*
X533001Y735942D01*
X533001Y726439D01*
X523498Y726439D01*
G37*
%LPD*%
%LPC*%
G36*
X538079Y721361D02*
X538079Y721361D01*
X547582Y721361D01*
X547528Y721022D01*
X546930Y719182D01*
X546052Y717458D01*
X544915Y715893D01*
X543547Y714525D01*
X541982Y713388D01*
X540258Y712510D01*
X538418Y711912D01*
X538079Y711858D01*
X538079Y721361D01*
G37*
%LPD*%
%LPC*%
G36*
X532662Y711912D02*
X532662Y711912D01*
X530822Y712510D01*
X529098Y713388D01*
X527533Y714525D01*
X526165Y715893D01*
X525028Y717458D01*
X524150Y719182D01*
X523552Y721022D01*
X523498Y721361D01*
X533001Y721361D01*
X533001Y711858D01*
X532662Y711912D01*
G37*
%LPD*%
%LPC*%
G36*
X713739Y269239D02*
X713739Y269239D01*
X713739Y276861D01*
X715409Y276861D01*
X721361Y270909D01*
X721361Y269239D01*
X713739Y269239D01*
G37*
%LPD*%
%LPC*%
G36*
X688339Y40639D02*
X688339Y40639D01*
X688339Y48261D01*
X690009Y48261D01*
X695961Y42309D01*
X695961Y40639D01*
X688339Y40639D01*
G37*
%LPD*%
%LPC*%
G36*
X701039Y269239D02*
X701039Y269239D01*
X701039Y270909D01*
X706991Y276861D01*
X708661Y276861D01*
X708661Y269239D01*
X701039Y269239D01*
G37*
%LPD*%
%LPC*%
G36*
X713739Y256539D02*
X713739Y256539D01*
X713739Y264161D01*
X721361Y264161D01*
X721361Y262491D01*
X715409Y256539D01*
X713739Y256539D01*
G37*
%LPD*%
%LPC*%
G36*
X675639Y40639D02*
X675639Y40639D01*
X675639Y42309D01*
X681591Y48261D01*
X683261Y48261D01*
X683261Y40639D01*
X675639Y40639D01*
G37*
%LPD*%
%LPC*%
G36*
X688339Y27939D02*
X688339Y27939D01*
X688339Y35561D01*
X695961Y35561D01*
X695961Y33891D01*
X690009Y27939D01*
X688339Y27939D01*
G37*
%LPD*%
%LPC*%
G36*
X706991Y256539D02*
X706991Y256539D01*
X701039Y262491D01*
X701039Y264161D01*
X708661Y264161D01*
X708661Y256539D01*
X706991Y256539D01*
G37*
%LPD*%
%LPC*%
G36*
X681591Y27939D02*
X681591Y27939D01*
X675639Y33891D01*
X675639Y35561D01*
X683261Y35561D01*
X683261Y27939D01*
X681591Y27939D01*
G37*
%LPD*%
%LPC*%
G36*
X485139Y599439D02*
X485139Y599439D01*
X485139Y607106D01*
X486627Y606622D01*
X488098Y605873D01*
X489434Y604902D01*
X490602Y603734D01*
X491573Y602398D01*
X492322Y600927D01*
X492806Y599439D01*
X485139Y599439D01*
G37*
%LPD*%
%LPC*%
G36*
X662939Y599439D02*
X662939Y599439D01*
X662939Y607106D01*
X664427Y606622D01*
X665898Y605873D01*
X667234Y604902D01*
X668402Y603734D01*
X669373Y602398D01*
X670122Y600927D01*
X670606Y599439D01*
X662939Y599439D01*
G37*
%LPD*%
%LPC*%
G36*
X472394Y599439D02*
X472394Y599439D01*
X472878Y600927D01*
X473627Y602398D01*
X474598Y603734D01*
X475766Y604902D01*
X477102Y605873D01*
X478573Y606622D01*
X480061Y607106D01*
X480061Y599439D01*
X472394Y599439D01*
G37*
%LPD*%
%LPC*%
G36*
X650194Y599439D02*
X650194Y599439D01*
X650678Y600927D01*
X651427Y602398D01*
X652398Y603734D01*
X653566Y604902D01*
X654902Y605873D01*
X656373Y606622D01*
X657861Y607106D01*
X657861Y599439D01*
X650194Y599439D01*
G37*
%LPD*%
%LPC*%
G36*
X485139Y594361D02*
X485139Y594361D01*
X492806Y594361D01*
X492322Y592873D01*
X491573Y591402D01*
X490602Y590066D01*
X489434Y588898D01*
X488098Y587927D01*
X486627Y587178D01*
X485139Y586694D01*
X485139Y594361D01*
G37*
%LPD*%
%LPC*%
G36*
X662939Y594361D02*
X662939Y594361D01*
X670606Y594361D01*
X670122Y592873D01*
X669373Y591402D01*
X668402Y590066D01*
X667234Y588898D01*
X665898Y587927D01*
X664427Y587178D01*
X662939Y586694D01*
X662939Y594361D01*
G37*
%LPD*%
%LPC*%
G36*
X656373Y587178D02*
X656373Y587178D01*
X654902Y587927D01*
X653566Y588898D01*
X652398Y590066D01*
X651427Y591402D01*
X650678Y592873D01*
X650194Y594361D01*
X657861Y594361D01*
X657861Y586694D01*
X656373Y587178D01*
G37*
%LPD*%
%LPC*%
G36*
X535539Y723899D02*
X535539Y723899D01*
X535539Y723901D01*
X535541Y723901D01*
X535541Y723899D01*
X535539Y723899D01*
G37*
%LPD*%
%LPC*%
G36*
X660399Y596899D02*
X660399Y596899D01*
X660399Y596901D01*
X660401Y596901D01*
X660401Y596899D01*
X660399Y596899D01*
G37*
%LPD*%
%LPC*%
G36*
X685799Y469899D02*
X685799Y469899D01*
X685799Y469901D01*
X685801Y469901D01*
X685801Y469899D01*
X685799Y469899D01*
G37*
%LPD*%
%LPC*%
G36*
X660399Y469899D02*
X660399Y469899D01*
X660399Y469901D01*
X660401Y469901D01*
X660401Y469899D01*
X660399Y469899D01*
G37*
%LPD*%
%LPC*%
G36*
X482599Y596899D02*
X482599Y596899D01*
X482599Y596901D01*
X482601Y596901D01*
X482601Y596899D01*
X482599Y596899D01*
G37*
%LPD*%
%LPC*%
G36*
X711199Y266699D02*
X711199Y266699D01*
X711199Y266701D01*
X711201Y266701D01*
X711201Y266699D01*
X711199Y266699D01*
G37*
%LPD*%
%LPC*%
G36*
X685799Y38099D02*
X685799Y38099D01*
X685799Y38101D01*
X685801Y38101D01*
X685801Y38099D01*
X685799Y38099D01*
G37*
%LPD*%
D10*
X584200Y462280D02*
X584200Y477520D01*
X609600Y477520D02*
X609600Y462280D01*
X635000Y462280D02*
X635000Y477520D01*
X660400Y477520D02*
X660400Y462280D01*
X685800Y462280D02*
X685800Y477520D01*
X711200Y477520D02*
X711200Y462280D01*
X584200Y414020D02*
X584200Y398780D01*
X609600Y398780D02*
X609600Y414020D01*
X635000Y414020D02*
X635000Y398780D01*
X660400Y398780D02*
X660400Y414020D01*
X685800Y414020D02*
X685800Y398780D01*
X711200Y398780D02*
X711200Y414020D01*
D11*
X711200Y38100D03*
X685800Y38100D03*
X711200Y63500D03*
X685800Y63500D03*
X711200Y88900D03*
X685800Y88900D03*
X711200Y114300D03*
X685800Y114300D03*
X711200Y139700D03*
X685800Y139700D03*
X711200Y165100D03*
X685800Y165100D03*
X711200Y190500D03*
X685800Y190500D03*
X711200Y215900D03*
X685800Y215900D03*
X711200Y241300D03*
X685800Y241300D03*
X711200Y266700D03*
X685800Y266700D03*
D12*
X635000Y596900D03*
D13*
X685800Y596900D03*
D12*
X660400Y596900D03*
X457200Y596900D03*
D13*
X508000Y596900D03*
D12*
X482600Y596900D03*
D14*
X625602Y114554D03*
X625602Y63246D03*
X567182Y114808D03*
X101092Y318516D03*
X156972Y284988D03*
X567182Y62992D03*
D15*
X485540Y723900D03*
D16*
X535540Y723900D03*
D17*
X380800Y665480D02*
X355800Y665480D01*
D18*
X357050Y725480D02*
X379550Y725480D01*
X321300Y706730D02*
X321300Y684230D01*
D19*
X603250Y628650D02*
X635000Y596900D01*
X43346Y609766D02*
X43346Y538480D01*
X43346Y427824D01*
X43346Y609766D02*
X62230Y628650D01*
X43346Y427824D02*
X113030Y358140D01*
X167499Y303671D01*
X62230Y628650D02*
X603250Y628650D01*
D20*
X43346Y538480D03*
X113030Y358140D03*
D19*
X241808Y521208D02*
X252730Y532130D01*
D20*
X241808Y521208D03*
X252730Y532130D03*
X593090Y164844D03*
X565150Y164844D03*
X294464Y494580D03*
D21*
X294464Y567232D02*
X328450Y601218D01*
X294464Y567232D02*
X294464Y494580D01*
D19*
X167499Y446899D02*
X167499Y303671D01*
X167499Y446899D02*
X241808Y521208D01*
D20*
X328450Y601218D03*
X96520Y546100D03*
X280670Y552450D03*
X416336Y248210D03*
X268800Y248494D03*
X268800Y361106D03*
X260126Y619050D03*
X680466Y688114D03*
X91000Y464394D03*
X139000Y577006D03*
X238986Y502412D03*
X399006Y586740D03*
X583184Y688114D03*
X223294Y661416D03*
X49304Y362204D03*
X49304Y385572D03*
X135664Y247650D03*
X134394Y224028D03*
X49304Y407416D03*
X432026Y554228D03*
X238986Y481330D03*
X430022Y341856D03*
X399006Y610870D03*
X429260Y189004D03*
X264160Y561340D03*
X185420Y561340D03*
X340360Y361950D03*
X351790Y262890D03*
X316230Y283210D03*
X60960Y443230D03*
X213360Y535940D03*
D19*
X457200Y596900D02*
X529590Y524510D01*
X613410Y524510D01*
X635000Y502920D01*
X635000Y469900D01*
D20*
X637540Y275590D03*
D22*
X609600Y247650D01*
X608330Y247650D01*
D20*
X608330Y247650D03*
D21*
X527050Y328930D02*
X321310Y328930D01*
D20*
X321310Y328930D03*
X527050Y328930D03*
D21*
X699770Y153670D02*
X711200Y165100D01*
X699770Y153670D02*
X643890Y153670D01*
D20*
X643890Y153670D03*
D21*
X622300Y328930D02*
X527050Y328930D01*
X685800Y392430D02*
X685800Y406400D01*
X685800Y392430D02*
X622300Y328930D01*
D20*
X434340Y514350D03*
D22*
X392430Y472440D01*
X389890Y472440D01*
X391160Y471170D01*
D20*
X391160Y471170D03*
D21*
X668020Y165100D02*
X685800Y165100D01*
X668020Y165100D02*
X619760Y213360D01*
D20*
X565150Y213360D03*
D21*
X368300Y269240D02*
X308610Y328930D01*
X368300Y269240D02*
X565150Y269240D01*
X565150Y252730D01*
X565150Y213360D01*
D20*
X308610Y328930D03*
D21*
X565150Y213360D02*
X619760Y213360D01*
X565150Y252730D02*
X664210Y351790D01*
X712470Y351790D01*
X712470Y405130D01*
X711200Y406400D01*
M02*
