G04 EAGLE Gerber RS-274X export*
G75*
%MOMM*%
%FSLAX34Y34*%
%LPD*%
%IN*%
%IPPOS*%
%AMOC8*
5,1,8,0,0,1.08239X$1,22.5*%
G01*
%ADD10C,0.254000*%


D10*
X0Y0D02*
X762000Y0D01*
X762000Y762000D01*
X0Y762000D01*
X0Y0D01*
X316300Y680480D02*
X326300Y680480D01*
X326300Y710480D01*
X316300Y710480D01*
X316300Y680480D01*
X350800Y660480D02*
X385800Y660480D01*
X385800Y670480D01*
X350800Y670480D01*
X350800Y660480D01*
X353300Y720480D02*
X383300Y720480D01*
X383300Y730480D01*
X353300Y730480D01*
X353300Y720480D01*
X346800Y305193D02*
X346877Y305975D01*
X347030Y306746D01*
X347259Y307498D01*
X347559Y308225D01*
X347930Y308918D01*
X348367Y309571D01*
X348865Y310179D01*
X349421Y310735D01*
X350029Y311233D01*
X350682Y311670D01*
X351375Y312041D01*
X352102Y312341D01*
X352854Y312570D01*
X353625Y312723D01*
X354407Y312800D01*
X355193Y312800D01*
X355975Y312723D01*
X356746Y312570D01*
X357498Y312341D01*
X358225Y312041D01*
X358918Y311670D01*
X359571Y311233D01*
X360179Y310735D01*
X360735Y310179D01*
X361233Y309571D01*
X361670Y308918D01*
X362041Y308225D01*
X362341Y307498D01*
X362570Y306746D01*
X362723Y305975D01*
X362800Y305193D01*
X362800Y304407D01*
X362723Y303625D01*
X362570Y302854D01*
X362341Y302102D01*
X362041Y301375D01*
X361670Y300682D01*
X361233Y300029D01*
X360735Y299421D01*
X360179Y298865D01*
X359571Y298367D01*
X358918Y297930D01*
X358225Y297559D01*
X357498Y297259D01*
X356746Y297030D01*
X355975Y296877D01*
X355193Y296800D01*
X354407Y296800D01*
X353625Y296877D01*
X352854Y297030D01*
X352102Y297259D01*
X351375Y297559D01*
X350682Y297930D01*
X350029Y298367D01*
X349421Y298865D01*
X348865Y299421D01*
X348367Y300029D01*
X347930Y300682D01*
X347559Y301375D01*
X347259Y302102D01*
X347030Y302854D01*
X346877Y303625D01*
X346800Y304407D01*
X346800Y305193D01*
X250800Y305193D02*
X250877Y305975D01*
X251030Y306746D01*
X251259Y307498D01*
X251559Y308225D01*
X251930Y308918D01*
X252367Y309571D01*
X252865Y310179D01*
X253421Y310735D01*
X254029Y311233D01*
X254682Y311670D01*
X255375Y312041D01*
X256102Y312341D01*
X256854Y312570D01*
X257625Y312723D01*
X258407Y312800D01*
X259193Y312800D01*
X259975Y312723D01*
X260746Y312570D01*
X261498Y312341D01*
X262225Y312041D01*
X262918Y311670D01*
X263571Y311233D01*
X264179Y310735D01*
X264735Y310179D01*
X265233Y309571D01*
X265670Y308918D01*
X266041Y308225D01*
X266341Y307498D01*
X266570Y306746D01*
X266723Y305975D01*
X266800Y305193D01*
X266800Y304407D01*
X266723Y303625D01*
X266570Y302854D01*
X266341Y302102D01*
X266041Y301375D01*
X265670Y300682D01*
X265233Y300029D01*
X264735Y299421D01*
X264179Y298865D01*
X263571Y298367D01*
X262918Y297930D01*
X262225Y297559D01*
X261498Y297259D01*
X260746Y297030D01*
X259975Y296877D01*
X259193Y296800D01*
X258407Y296800D01*
X257625Y296877D01*
X256854Y297030D01*
X256102Y297259D01*
X255375Y297559D01*
X254682Y297930D01*
X254029Y298367D01*
X253421Y298865D01*
X252865Y299421D01*
X252367Y300029D01*
X251930Y300682D01*
X251559Y301375D01*
X251259Y302102D01*
X251030Y302854D01*
X250877Y303625D01*
X250800Y304407D01*
X250800Y305193D01*
X85000Y520307D02*
X84923Y519525D01*
X84770Y518754D01*
X84541Y518002D01*
X84241Y517275D01*
X83870Y516582D01*
X83433Y515929D01*
X82935Y515321D01*
X82379Y514765D01*
X81771Y514267D01*
X81118Y513830D01*
X80425Y513459D01*
X79698Y513159D01*
X78946Y512930D01*
X78175Y512777D01*
X77393Y512700D01*
X76607Y512700D01*
X75825Y512777D01*
X75054Y512930D01*
X74302Y513159D01*
X73575Y513459D01*
X72882Y513830D01*
X72229Y514267D01*
X71621Y514765D01*
X71065Y515321D01*
X70567Y515929D01*
X70130Y516582D01*
X69759Y517275D01*
X69459Y518002D01*
X69230Y518754D01*
X69077Y519525D01*
X69000Y520307D01*
X69000Y521093D01*
X69077Y521875D01*
X69230Y522646D01*
X69459Y523398D01*
X69759Y524125D01*
X70130Y524818D01*
X70567Y525471D01*
X71065Y526079D01*
X71621Y526635D01*
X72229Y527133D01*
X72882Y527570D01*
X73575Y527941D01*
X74302Y528241D01*
X75054Y528470D01*
X75825Y528623D01*
X76607Y528700D01*
X77393Y528700D01*
X78175Y528623D01*
X78946Y528470D01*
X79698Y528241D01*
X80425Y527941D01*
X81118Y527570D01*
X81771Y527133D01*
X82379Y526635D01*
X82935Y526079D01*
X83433Y525471D01*
X83870Y524818D01*
X84241Y524125D01*
X84541Y523398D01*
X84770Y522646D01*
X84923Y521875D01*
X85000Y521093D01*
X85000Y520307D01*
X181000Y520307D02*
X180923Y519525D01*
X180770Y518754D01*
X180541Y518002D01*
X180241Y517275D01*
X179870Y516582D01*
X179433Y515929D01*
X178935Y515321D01*
X178379Y514765D01*
X177771Y514267D01*
X177118Y513830D01*
X176425Y513459D01*
X175698Y513159D01*
X174946Y512930D01*
X174175Y512777D01*
X173393Y512700D01*
X172607Y512700D01*
X171825Y512777D01*
X171054Y512930D01*
X170302Y513159D01*
X169575Y513459D01*
X168882Y513830D01*
X168229Y514267D01*
X167621Y514765D01*
X167065Y515321D01*
X166567Y515929D01*
X166130Y516582D01*
X165759Y517275D01*
X165459Y518002D01*
X165230Y518754D01*
X165077Y519525D01*
X165000Y520307D01*
X165000Y521093D01*
X165077Y521875D01*
X165230Y522646D01*
X165459Y523398D01*
X165759Y524125D01*
X166130Y524818D01*
X166567Y525471D01*
X167065Y526079D01*
X167621Y526635D01*
X168229Y527133D01*
X168882Y527570D01*
X169575Y527941D01*
X170302Y528241D01*
X171054Y528470D01*
X171825Y528623D01*
X172607Y528700D01*
X173393Y528700D01*
X174175Y528623D01*
X174946Y528470D01*
X175698Y528241D01*
X176425Y527941D01*
X177118Y527570D01*
X177771Y527133D01*
X178379Y526635D01*
X178935Y526079D01*
X179433Y525471D01*
X179870Y524818D01*
X180241Y524125D01*
X180541Y523398D01*
X180770Y522646D01*
X180923Y521875D01*
X181000Y521093D01*
X181000Y520307D01*
M02*
