G04 EAGLE Gerber RS-274X export*
G75*
%MOMM*%
%FSLAX34Y34*%
%LPD*%
%INSolderpaste Top*%
%IPPOS*%
%AMOC8*
5,1,8,0,0,1.08239X$1,22.5*%
G01*
%ADD10R,0.762000X0.965200*%
%ADD11R,1.100000X1.000000*%
%ADD12R,1.000000X1.100000*%
%ADD13R,1.473200X0.355600*%
%ADD14R,1.250000X1.600000*%
%ADD15R,0.500000X2.000000*%
%ADD16C,0.240000*%
%ADD17R,0.965200X0.762000*%
%ADD18R,1.400000X2.800000*%


D10*
X373126Y610870D03*
X388874Y610870D03*
X388874Y586740D03*
X373126Y586740D03*
D11*
X658740Y88900D03*
X641740Y88900D03*
D12*
X593090Y192650D03*
X593090Y175650D03*
X565150Y192650D03*
X565150Y175650D03*
D13*
X288290Y601218D03*
X288290Y594614D03*
X288290Y588264D03*
X288290Y581660D03*
X288290Y575056D03*
X288290Y568706D03*
X288290Y562102D03*
X346710Y562102D03*
X346710Y568706D03*
X346710Y575056D03*
X346710Y581660D03*
X346710Y588264D03*
X346710Y594614D03*
X346710Y601218D03*
D14*
X329770Y494580D03*
X329770Y531580D03*
X307770Y531580D03*
X307770Y494580D03*
D15*
X340800Y345800D03*
X332800Y345800D03*
X324800Y345800D03*
X316800Y345800D03*
X308800Y345800D03*
X300800Y345800D03*
X292800Y345800D03*
X284800Y345800D03*
X276800Y345800D03*
X268800Y345800D03*
X268800Y263800D03*
X276800Y263800D03*
X284800Y263800D03*
X292800Y263800D03*
X300800Y263800D03*
X308800Y263800D03*
X316800Y263800D03*
X324800Y263800D03*
X332800Y263800D03*
X340800Y263800D03*
X91000Y479700D03*
X99000Y479700D03*
X107000Y479700D03*
X115000Y479700D03*
X123000Y479700D03*
X131000Y479700D03*
X139000Y479700D03*
X147000Y479700D03*
X155000Y479700D03*
X163000Y479700D03*
X163000Y561700D03*
X155000Y561700D03*
X147000Y561700D03*
X139000Y561700D03*
X131000Y561700D03*
X123000Y561700D03*
X115000Y561700D03*
X107000Y561700D03*
X99000Y561700D03*
X91000Y561700D03*
D16*
X243920Y613750D02*
X253620Y613750D01*
X253620Y611350D01*
X243920Y611350D01*
X243920Y613750D01*
X243920Y613630D02*
X253620Y613630D01*
X253620Y620250D02*
X243920Y620250D01*
X253620Y620250D02*
X253620Y617850D01*
X243920Y617850D01*
X243920Y620250D01*
X243920Y620130D02*
X253620Y620130D01*
X253620Y626750D02*
X243920Y626750D01*
X253620Y626750D02*
X253620Y624350D01*
X243920Y624350D01*
X243920Y626750D01*
X243920Y626630D02*
X253620Y626630D01*
X253620Y633250D02*
X243920Y633250D01*
X253620Y633250D02*
X253620Y630850D01*
X243920Y630850D01*
X243920Y633250D01*
X243920Y633130D02*
X253620Y633130D01*
X228520Y630850D02*
X218820Y630850D01*
X218820Y633250D01*
X228520Y633250D01*
X228520Y630850D01*
X228520Y633130D02*
X218820Y633130D01*
X218820Y624350D02*
X228520Y624350D01*
X218820Y624350D02*
X218820Y626750D01*
X228520Y626750D01*
X228520Y624350D01*
X228520Y626630D02*
X218820Y626630D01*
X218820Y617850D02*
X228520Y617850D01*
X218820Y617850D02*
X218820Y620250D01*
X228520Y620250D01*
X228520Y617850D01*
X228520Y620130D02*
X218820Y620130D01*
X218820Y611350D02*
X228520Y611350D01*
X218820Y611350D02*
X218820Y613750D01*
X228520Y613750D01*
X228520Y611350D01*
X228520Y613630D02*
X218820Y613630D01*
X400130Y282280D02*
X409830Y282280D01*
X409830Y279880D01*
X400130Y279880D01*
X400130Y282280D01*
X400130Y282160D02*
X409830Y282160D01*
X409830Y288780D02*
X400130Y288780D01*
X409830Y288780D02*
X409830Y286380D01*
X400130Y286380D01*
X400130Y288780D01*
X400130Y288660D02*
X409830Y288660D01*
X409830Y295280D02*
X400130Y295280D01*
X409830Y295280D02*
X409830Y292880D01*
X400130Y292880D01*
X400130Y295280D01*
X400130Y295160D02*
X409830Y295160D01*
X409830Y301780D02*
X400130Y301780D01*
X409830Y301780D02*
X409830Y299380D01*
X400130Y299380D01*
X400130Y301780D01*
X400130Y301660D02*
X409830Y301660D01*
X384730Y299380D02*
X375030Y299380D01*
X375030Y301780D01*
X384730Y301780D01*
X384730Y299380D01*
X384730Y301660D02*
X375030Y301660D01*
X375030Y292880D02*
X384730Y292880D01*
X375030Y292880D02*
X375030Y295280D01*
X384730Y295280D01*
X384730Y292880D01*
X384730Y295160D02*
X375030Y295160D01*
X375030Y286380D02*
X384730Y286380D01*
X375030Y286380D02*
X375030Y288780D01*
X384730Y288780D01*
X384730Y286380D01*
X384730Y288660D02*
X375030Y288660D01*
X375030Y279880D02*
X384730Y279880D01*
X375030Y279880D02*
X375030Y282280D01*
X384730Y282280D01*
X384730Y279880D01*
X384730Y282160D02*
X375030Y282160D01*
X253620Y555330D02*
X243920Y555330D01*
X253620Y555330D02*
X253620Y552930D01*
X243920Y552930D01*
X243920Y555330D01*
X243920Y555210D02*
X253620Y555210D01*
X253620Y561830D02*
X243920Y561830D01*
X253620Y561830D02*
X253620Y559430D01*
X243920Y559430D01*
X243920Y561830D01*
X243920Y561710D02*
X253620Y561710D01*
X253620Y568330D02*
X243920Y568330D01*
X253620Y568330D02*
X253620Y565930D01*
X243920Y565930D01*
X243920Y568330D01*
X243920Y568210D02*
X253620Y568210D01*
X253620Y574830D02*
X243920Y574830D01*
X253620Y574830D02*
X253620Y572430D01*
X243920Y572430D01*
X243920Y574830D01*
X243920Y574710D02*
X253620Y574710D01*
X228520Y572430D02*
X218820Y572430D01*
X218820Y574830D01*
X228520Y574830D01*
X228520Y572430D01*
X228520Y574710D02*
X218820Y574710D01*
X218820Y565930D02*
X228520Y565930D01*
X218820Y565930D02*
X218820Y568330D01*
X228520Y568330D01*
X228520Y565930D01*
X228520Y568210D02*
X218820Y568210D01*
X218820Y559430D02*
X228520Y559430D01*
X218820Y559430D02*
X218820Y561830D01*
X228520Y561830D01*
X228520Y559430D01*
X228520Y561710D02*
X218820Y561710D01*
X218820Y552930D02*
X228520Y552930D01*
X218820Y552930D02*
X218820Y555330D01*
X228520Y555330D01*
X228520Y552930D01*
X228520Y555210D02*
X218820Y555210D01*
X400130Y242910D02*
X409830Y242910D01*
X409830Y240510D01*
X400130Y240510D01*
X400130Y242910D01*
X400130Y242790D02*
X409830Y242790D01*
X409830Y249410D02*
X400130Y249410D01*
X409830Y249410D02*
X409830Y247010D01*
X400130Y247010D01*
X400130Y249410D01*
X400130Y249290D02*
X409830Y249290D01*
X409830Y255910D02*
X400130Y255910D01*
X409830Y255910D02*
X409830Y253510D01*
X400130Y253510D01*
X400130Y255910D01*
X400130Y255790D02*
X409830Y255790D01*
X409830Y262410D02*
X400130Y262410D01*
X409830Y262410D02*
X409830Y260010D01*
X400130Y260010D01*
X400130Y262410D01*
X400130Y262290D02*
X409830Y262290D01*
X384730Y260010D02*
X375030Y260010D01*
X375030Y262410D01*
X384730Y262410D01*
X384730Y260010D01*
X384730Y262290D02*
X375030Y262290D01*
X375030Y253510D02*
X384730Y253510D01*
X375030Y253510D02*
X375030Y255910D01*
X384730Y255910D01*
X384730Y253510D01*
X384730Y255790D02*
X375030Y255790D01*
X375030Y247010D02*
X384730Y247010D01*
X375030Y247010D02*
X375030Y249410D01*
X384730Y249410D01*
X384730Y247010D01*
X384730Y249290D02*
X375030Y249290D01*
X375030Y240510D02*
X384730Y240510D01*
X375030Y240510D02*
X375030Y242910D01*
X384730Y242910D01*
X384730Y240510D01*
X384730Y242790D02*
X375030Y242790D01*
D11*
X129930Y417576D03*
X146930Y417576D03*
X129930Y396748D03*
X146930Y396748D03*
X129930Y375920D03*
X146930Y375920D03*
X129930Y437642D03*
X146930Y437642D03*
D10*
X421894Y554228D03*
X406146Y554228D03*
D17*
X583184Y713994D03*
X583184Y698246D03*
X680466Y713994D03*
X680466Y698246D03*
X430022Y310896D03*
X430022Y326644D03*
X429260Y214884D03*
X429260Y199136D03*
D10*
X228854Y521208D03*
X213106Y521208D03*
X249174Y661416D03*
X233426Y661416D03*
X75184Y362204D03*
X59436Y362204D03*
X75184Y385572D03*
X59436Y385572D03*
X161544Y247650D03*
X145796Y247650D03*
X160274Y224028D03*
X144526Y224028D03*
X75184Y407416D03*
X59436Y407416D03*
X76454Y429514D03*
X60706Y429514D03*
X213106Y502412D03*
X228854Y502412D03*
X213106Y481330D03*
X228854Y481330D03*
D18*
X609872Y714248D03*
X643872Y714248D03*
M02*
